<svg width="150"
    xmlns="http://www.w3.org/2000/svg"
    xmlns:xlink="http://www.w3.org/1999/xlink" id="OBJECTS" x="0px" y="0px" viewBox="0 0 119.01 88" style="enable-background:new 0 0 119.01 88;" xml:space="preserve">
    <g>
        <g>
            <path fill="#ccc" d="M118.48,53.74c-0.3-0.23-0.97-0.56-1.44-0.69c-0.67-0.19-2.25-0.15-3.19,0.07c-1.32,0.32-1.69,0.42-1.95,0.52    c-0.14,0.06-0.27,0.1-0.31,0.09c-0.07-0.01-1.72,0.66-2.5,1.03l-0.48,0.22l0.05-0.82c0.03-0.45,0.07-1.02,0.09-1.28    c0.02-0.25,0.04-0.64,0.04-0.86c0-0.22,0-0.44,0-0.5c0-0.06,0.02-1.38,0.03-2.94c0.03-3.07,0.04-3.03-0.44-3.56    c-0.23-0.26-0.28-0.27-1-0.31c-0.69-0.04-0.79-0.02-1.19,0.18c-0.54,0.27-1.85,1.54-2.48,2.4c-0.25,0.34-0.61,0.91-0.8,1.25    c-0.19,0.34-0.45,0.83-0.59,1.09c-0.14,0.25-0.35,0.65-0.48,0.88c-0.13,0.23-0.38,0.7-0.56,1.04c-0.61,1.17-1.38,2.38-1.76,2.78    c-0.43,0.44-0.63,0.51-0.55,0.19c0.03-0.11,0.01-0.23-0.04-0.25c-0.06-0.04-0.06-0.13-0.01-0.27c0.04-0.12,0.06-0.24,0.04-0.28    c-0.02-0.04-0.01-0.09,0.02-0.11c0.07-0.05,0.05-1-0.02-1.13c-0.03-0.05,0.01-0.18,0.09-0.29c0.08-0.12,0.11-0.25,0.08-0.3    c-0.03-0.05,0.02-0.24,0.11-0.42c0.19-0.37,0.38-1.09,0.46-1.75c0.03-0.25,0.08-0.49,0.11-0.54c0.03-0.05,0.06-0.2,0.07-0.34    c0.01-0.14,0.06-0.4,0.11-0.58c0.05-0.18,0.11-0.56,0.13-0.83c0.02-0.27,0.07-0.61,0.12-0.75c0.08-0.26,0.16-0.6,0.21-0.94    c0.06-0.38,0.15-0.74,0.21-0.82c0.1-0.14,0.09-1.04-0.02-1.23c-0.08-0.14-0.08-0.18,0.01-0.21c0.17-0.06,0.11-0.56-0.1-0.88    c-0.11-0.16-0.22-0.37-0.25-0.47c-0.03-0.1-0.21-0.26-0.4-0.35c-0.19-0.1-0.45-0.26-0.58-0.35c-0.18-0.14-0.25-0.15-0.3-0.07    c-0.05,0.08-0.19,0.09-0.48,0.05c-0.35-0.05-0.5-0.02-0.9,0.17c-0.41,0.19-0.46,0.24-0.34,0.31c0.22,0.13,0.2,0.31-0.42,2.7    c-0.12,0.46-0.25,0.98-0.28,1.17c-0.19,0.9-0.32,1.38-0.48,1.79c-0.1,0.25-0.16,0.47-0.14,0.49c0.02,0.02-0.03,0.14-0.12,0.25    c-0.09,0.12-0.21,0.4-0.28,0.63c-0.07,0.23-0.33,0.92-0.59,1.54c-0.25,0.62-0.44,1.14-0.42,1.16c0.02,0.02,0.01,0.08-0.03,0.13    c-0.04,0.05-0.16,0.33-0.27,0.63c-0.11,0.3-0.28,0.64-0.38,0.77c-0.1,0.13-0.21,0.41-0.24,0.65c-0.03,0.23-0.19,0.72-0.34,1.08    c-0.15,0.36-0.28,0.72-0.28,0.79c0,0.07-0.07,0.2-0.15,0.29c-0.09,0.09-0.18,0.34-0.21,0.61c-0.1,0.81-0.42,1.74-0.6,1.74    c-0.09,0-0.11,0.05-0.07,0.17c0.03,0.09-0.01,0.29-0.08,0.44c-0.07,0.15-0.21,0.51-0.3,0.81c-0.09,0.3-0.22,0.66-0.29,0.81    c-0.06,0.14-0.12,0.31-0.12,0.35c0,0.13-0.57,1.81-0.83,2.47c-0.31,0.76-1.69,3.48-1.79,3.52c-0.18,0.07-0.27-0.05-0.12-0.17    c0.1-0.08,0.12-0.28,0.12-0.89c0-1.12,0.1-2.26,0.2-2.36c0.05-0.05,0.06-0.25,0.03-0.49c-0.03-0.26-0.01-0.45,0.05-0.53    c0.06-0.07,0.09-0.27,0.08-0.44c-0.01-0.18,0-0.36,0.03-0.41c0.03-0.05,0.04-0.15,0.01-0.23c-0.03-0.08-0.01-0.18,0.04-0.25    c0.05-0.06,0.09-0.28,0.09-0.48c-0.01-0.46,0.09-1.09,0.18-1.2c0.11-0.13,0.25-1.04,0.24-1.54c-0.01-0.25,0.04-0.57,0.09-0.71    c0.12-0.3,0.15-0.71,0.06-0.77c-0.04-0.03-0.04-0.07,0.01-0.1c0.05-0.03,0.09-0.26,0.1-0.51c0.01-0.25,0.04-0.49,0.08-0.54    c0.03-0.05,0.08-0.29,0.11-0.54c0.1-1.03,0.15-1.3,0.24-1.48c0.05-0.1,0.07-0.3,0.04-0.43c-0.03-0.16-0.01-0.28,0.06-0.34    c0.06-0.05,0.14-0.28,0.17-0.51c0.03-0.23,0.09-0.43,0.13-0.46c0.04-0.02,0.07-0.13,0.07-0.23c0-0.1,0.05-0.26,0.11-0.34    c0.06-0.08,0.1-0.27,0.08-0.41c-0.02-0.14,0-0.33,0.04-0.43c0.1-0.22,0.28-1.12,0.27-1.34c0-0.09,0.02-0.24,0.07-0.33    c0.08-0.17,0.27-1.42,0.3-1.96c0.01-0.16,0.11-0.55,0.22-0.88c0.18-0.53,0.2-0.7,0.19-1.75c-0.01-0.99-0.04-1.23-0.19-1.56    c-0.24-0.53-0.59-0.87-0.97-0.92c-0.43-0.07-1.09,0.04-1.35,0.21c-0.21,0.14-1.16,1.18-1.16,1.27c0,0.02-0.1,0.15-0.22,0.28    c-0.51,0.55-1.94,3.09-1.94,3.44c0,0.08-0.05,0.18-0.11,0.2c-0.06,0.02-0.32,0.56-0.59,1.2c-0.26,0.63-0.63,1.5-0.8,1.92    c-0.18,0.42-0.35,0.89-0.38,1.04c-0.03,0.16-0.1,0.36-0.16,0.45c-0.13,0.21-0.74,1.67-0.82,1.96c-0.03,0.11-0.13,0.37-0.22,0.56    c-0.09,0.19-0.16,0.39-0.16,0.43c0,0.04-0.06,0.13-0.14,0.19c-0.12,0.1-0.13,0.09-0.09-0.14c0.02-0.14,0.11-0.61,0.18-1.04    c0.07-0.43,0.17-0.91,0.22-1.04c0.05-0.17,0.05-0.36-0.01-0.58c-0.07-0.23-0.07-0.38,0-0.53c0.05-0.11,0.09-0.38,0.09-0.61    c0-0.23,0.03-0.43,0.07-0.46c0.04-0.03,0.06-0.39,0.05-0.82c-0.02-0.61,0-0.8,0.1-0.91c0.08-0.08,0.12-0.24,0.1-0.38    c-0.02-0.13,0.02-0.29,0.08-0.35c0.07-0.07,0.09-0.18,0.06-0.28c-0.03-0.1-0.01-0.19,0.05-0.23c0.13-0.08,0.16-0.25,0.18-1.04    c0.01-0.33,0.04-0.63,0.08-0.68c0.04-0.05,0.04-0.15,0.01-0.23c-0.03-0.08-0.02-0.18,0.03-0.24c0.04-0.06,0.09-0.29,0.1-0.51    c0.01-0.23,0.05-0.48,0.1-0.57c0.06-0.11,0.05-0.19-0.01-0.27c-0.07-0.09-0.06-0.12,0.04-0.16c0.09-0.03,0.13-0.16,0.13-0.41    c0-0.2,0.04-0.4,0.08-0.44c0.04-0.04,0.09-0.3,0.11-0.58c0.02-0.28,0.08-0.59,0.14-0.7c0.06-0.12,0.09-0.33,0.06-0.52    c-0.03-0.22,0-0.35,0.08-0.42c0.07-0.06,0.11-0.2,0.09-0.34c-0.02-0.13-0.01-0.26,0.03-0.28C84.96,39.72,85,39.56,85,39.4    c0-0.16,0.05-0.4,0.12-0.53c0.18-0.36,0.26-1.09,0.12-1.18c-0.09-0.06-0.08-0.11,0.06-0.24c0.12-0.12,0.2-0.32,0.24-0.67    c0.04-0.33,0.11-0.55,0.22-0.64c0.08-0.07,0.16-0.2,0.16-0.25c0-0.06,0.04-0.18,0.08-0.25c0.18-0.32,0.36-0.92,0.4-1.32    c0.12-1.4-0.01-2.13-0.42-2.35c-0.12-0.07-0.22-0.16-0.2-0.21c0.03-0.1-0.51-0.42-0.64-0.37c-0.05,0.02-0.19-0.02-0.31-0.08    c-0.17-0.09-0.26-0.09-0.38-0.02c-0.12,0.08-0.19,0.07-0.35-0.05c-0.23-0.17-0.32-0.17-0.33-0.03c-0.05,1.05-0.19,1.78-0.54,2.82    c-0.02,0.07-0.09,0.33-0.15,0.58c-0.06,0.25-0.13,0.5-0.16,0.54c-0.1,0.15-0.55,1.67-0.65,2.17c-0.05,0.28-0.14,0.57-0.18,0.65    c-0.04,0.08-0.17,0.52-0.27,0.96c-0.3,1.28-0.7,2.75-0.94,3.47c-0.12,0.36-0.22,0.79-0.23,0.94c-0.01,0.16-0.05,0.31-0.1,0.34    c-0.05,0.03-0.13,0.23-0.17,0.43c-0.05,0.21-0.17,0.63-0.27,0.96c-0.1,0.33-0.23,0.77-0.29,1c-0.06,0.23-0.21,0.73-0.33,1.13    c-0.34,1.09-1.05,3.51-1.14,3.88c-0.05,0.18-0.13,0.45-0.19,0.58c-0.06,0.14-0.3,0.94-0.53,1.79s-0.48,1.73-0.54,1.96    c-0.06,0.23-0.2,0.73-0.29,1.13c-0.1,0.39-0.23,0.84-0.29,1c-0.3,0.8-0.83,2.28-1.04,2.88c-0.57,1.64-0.68,1.9-1.53,3.59    c-0.78,1.57-1.47,2.65-1.59,2.52c-0.03-0.03-0.07-0.27-0.07-0.54c-0.01-0.26-0.05-0.84-0.09-1.27c-0.04-0.43-0.06-0.85-0.06-0.92    c0.03-0.27,0.13-3.61,0.14-4.67c0.01-0.62,0.04-1.16,0.07-1.21c0.03-0.05,0.03-0.24-0.01-0.43c-0.04-0.22-0.03-0.36,0.02-0.38    c0.04-0.02,0.09-0.26,0.11-0.55c0.02-0.28,0.07-0.64,0.11-0.79c0.09-0.29,0.08-0.71-0.01-0.87c-0.03-0.05-0.01-0.23,0.05-0.38    c0.23-0.56,0.29-0.84,0.25-1.2c-0.02-0.21,0-0.45,0.05-0.54c0.05-0.09,0.11-0.34,0.13-0.56c0.02-0.22,0.08-0.44,0.12-0.49    c0.12-0.15,0.24-0.98,0.25-1.79c0.01-0.39,0.05-0.75,0.09-0.81c0.05-0.06,0.06-0.13,0.03-0.18c-0.03-0.04,0.05-0.27,0.18-0.51    c0.22-0.42,0.24-0.44,0.76-0.59c0.8-0.22,2.01-0.67,2.16-0.8c0.07-0.07,0.19-0.1,0.26-0.07c0.07,0.03,0.15,0.01,0.18-0.04    c0.03-0.05,0.14-0.09,0.24-0.09c0.1,0,0.34-0.07,0.54-0.17c0.31-0.14,0.35-0.19,0.3-0.36c-0.1-0.36-0.23-0.56-0.38-0.56    c-0.07,0-0.19-0.06-0.25-0.13c-0.17-0.21-0.8-0.11-2.02,0.32c-0.6,0.21-1.1,0.35-1.14,0.33c-0.17-0.16-0.02-1.16,0.19-1.29    c0.08-0.05,0.16-0.17,0.16-0.25c0-0.08,0.06-0.22,0.14-0.31c0.14-0.17,0.5-1.12,0.58-1.53c0.02-0.13,0.11-0.27,0.19-0.31    c0.09-0.05,0.16-0.22,0.19-0.48c0.03-0.22,0.13-0.55,0.22-0.73c0.1-0.18,0.16-0.41,0.15-0.51c-0.02-0.09,0.02-0.22,0.07-0.27    c0.05-0.05,0.14-0.31,0.19-0.58c0.05-0.27,0.15-0.69,0.22-0.94c0.07-0.25,0.16-0.63,0.21-0.84c0.05-0.21,0.13-0.5,0.17-0.65    c0.08-0.26,0.06-0.3-0.23-0.63c-0.36-0.4-0.65-0.47-1.1-0.27c-0.16,0.07-0.67,0.27-1.13,0.43c-1.67,0.61-1.86,0.68-1.8,0.74    c0.03,0.03-0.07,0.16-0.22,0.3c-0.23,0.2-0.26,0.26-0.18,0.36c0.08,0.1,0.07,0.18-0.02,0.36c-0.33,0.67-1.19,3.72-1.26,4.53    c-0.01,0.12-0.04,0.26-0.06,0.33c-0.06,0.17-0.29,1.41-0.39,2.13c-0.13,0.93-0.24,1.54-0.29,1.62c-0.03,0.04-0.24,0.12-0.48,0.17    c-0.24,0.05-1.08,0.31-1.87,0.57c-1.21,0.4-1.46,0.46-1.6,0.37c-0.25-0.16-0.25-0.14-0.07,0.31c0.09,0.22,0.36,0.6,0.59,0.83    c0.37,0.38,0.46,0.43,0.76,0.43c0.19,0,0.41-0.05,0.5-0.11c0.09-0.06,0.34-0.16,0.58-0.22c0.23-0.06,0.47-0.16,0.55-0.22    c0.07-0.06,0.24-0.11,0.36-0.11c0.18,0,0.22,0.03,0.17,0.15c-0.03,0.08-0.13,0.34-0.21,0.58c-0.08,0.23-0.21,0.53-0.29,0.64    c-0.08,0.12-0.22,0.45-0.33,0.74c-0.21,0.58-0.62,1.53-1.17,2.72c-0.2,0.43-0.36,0.8-0.36,0.83c0,0.03-0.13,0.33-0.29,0.67    c-0.37,0.77-0.67,1.59-0.88,2.46c-0.09,0.38-0.25,0.85-0.36,1.06c-0.47,0.93-0.62,1.24-0.79,1.67c-0.1,0.25-0.26,0.59-0.34,0.75    c-1.14,2.29-1.74,3.25-2.46,3.94c-0.6,0.57-1.02,0.73-1.36,0.51c-0.29-0.19-0.96-1.02-1.11-1.37c-0.06-0.15-0.19-0.35-0.29-0.43    c-0.13-0.12-0.15-0.18-0.08-0.27c0.06-0.08,0.05-0.16-0.04-0.3c-0.07-0.1-0.13-0.27-0.13-0.37c0-0.1-0.05-0.2-0.11-0.23    c-0.07-0.03-0.12-0.23-0.13-0.56c-0.01-0.28-0.06-0.59-0.1-0.67c-0.04-0.08-0.06-0.21-0.03-0.28c0.03-0.07,0.02-0.18-0.02-0.23    c-0.06-0.09-0.12-1.05-0.11-1.69c0.03-2.17,0.03-2.18,0.26-2.48c0.12-0.16,0.38-0.45,0.56-0.65c0.18-0.19,0.34-0.38,0.34-0.41    c0-0.03,0.16-0.23,0.35-0.44c0.2-0.21,0.49-0.58,0.67-0.83c0.17-0.25,0.43-0.61,0.58-0.82c0.14-0.2,0.3-0.43,0.35-0.5    c0.05-0.07,0.2-0.3,0.35-0.51c0.15-0.21,0.32-0.5,0.39-0.64c0.07-0.14,0.18-0.31,0.25-0.36c0.07-0.06,0.13-0.14,0.13-0.18    c0-0.04,0.09-0.2,0.21-0.35c0.11-0.15,0.21-0.3,0.21-0.33c0-0.03,0.13-0.25,0.29-0.48c0.16-0.23,0.31-0.52,0.34-0.63    c0.03-0.11,0.08-0.2,0.11-0.2c0.03,0,0.22-0.33,0.41-0.73c0.19-0.4,0.46-0.95,0.59-1.21c0.13-0.26,0.24-0.53,0.24-0.59    c0-0.06,0.09-0.32,0.21-0.57c0.12-0.25,0.27-0.59,0.34-0.75c0.07-0.16,0.2-0.43,0.29-0.61c0.09-0.18,0.14-0.35,0.11-0.4    c-0.03-0.05,0-0.13,0.07-0.19c0.07-0.05,0.2-0.33,0.31-0.6c0.38-1.02,0.44-1.17,0.59-1.5c0.09-0.19,0.16-0.38,0.16-0.43    c0-0.05,0.08-0.25,0.18-0.46c0.1-0.2,0.21-0.47,0.24-0.58c0.04-0.12,0.16-0.47,0.28-0.79c0.12-0.33,0.21-0.67,0.21-0.77    c0-0.1,0.04-0.19,0.08-0.19c0.04,0,0.1-0.18,0.13-0.4c0.03-0.22,0.12-0.55,0.21-0.74c0.08-0.19,0.18-0.51,0.21-0.71    c0.03-0.2,0.1-0.41,0.14-0.47c0.05-0.06,0.09-0.36,0.11-0.67c0.01-0.31,0.05-0.63,0.08-0.71c0.08-0.22-0.1-1.56-0.21-1.56    c-0.11,0-0.18-0.43-0.08-0.55c0.07-0.08,0.04-0.17-0.1-0.36c-0.1-0.14-0.21-0.25-0.23-0.25c-0.03,0-0.15-0.1-0.28-0.22    c-0.13-0.12-0.39-0.26-0.57-0.3c-0.18-0.04-0.43-0.14-0.55-0.23c-0.12-0.08-0.31-0.18-0.42-0.21c-0.11-0.03-0.36-0.13-0.54-0.22    c-0.2-0.09-0.57-0.16-0.89-0.17c-0.46-0.01-0.59,0.01-0.74,0.15c-0.1,0.09-0.44,0.35-0.77,0.57c-0.78,0.54-1.72,1.52-2.29,2.38    c-0.52,0.78-1.22,2.08-1.46,2.7c-0.09,0.23-0.26,0.63-0.37,0.88c-0.46,1.03-1.54,4.24-1.73,5.13c-0.05,0.23-0.21,0.85-0.37,1.39    c-0.16,0.53-0.28,1.07-0.28,1.19c0,0.12-0.03,0.24-0.07,0.26c-0.04,0.03-0.1,0.23-0.13,0.44c-0.03,0.22-0.11,0.55-0.17,0.74    c-0.07,0.19-0.13,0.47-0.15,0.63c-0.02,0.16-0.08,0.47-0.13,0.7c-0.05,0.23-0.17,0.96-0.26,1.63c-0.09,0.67-0.2,1.27-0.23,1.34    c-0.03,0.07-0.07,0.31-0.08,0.53c-0.05,1.08-0.33,2.78-0.51,3.14c-0.21,0.42-0.75,1.7-1.03,2.46c-0.1,0.28-0.21,0.54-0.24,0.59    c-0.03,0.05-0.2,0.44-0.39,0.86c-0.18,0.43-0.48,1.01-0.66,1.29c-0.31,0.49-1.84,3.54-2.56,5.1c-0.35,0.76-0.91,1.59-1.06,1.57    c-0.13-0.02-0.3-0.79-0.26-1.17c0.02-0.2,0-0.37-0.05-0.4c-0.05-0.03-0.06-0.15-0.03-0.28c0.03-0.12,0.07-0.35,0.09-0.51    c0.02-0.16,0.05-0.44,0.07-0.63c0.03-0.18,0.07-0.56,0.09-0.84c0.03-0.28,0.1-0.71,0.16-0.96c0.06-0.25,0.1-0.48,0.08-0.51    c-0.02-0.03,0.02-0.19,0.09-0.35c0.07-0.16,0.12-0.44,0.12-0.62c0-0.18,0.05-0.4,0.12-0.48c0.07-0.09,0.12-0.26,0.12-0.38    c0-0.12,0.04-0.25,0.08-0.29c0.04-0.04,0.12-0.36,0.17-0.71c0.05-0.34,0.13-0.7,0.18-0.78c0.18-0.33,0.31-0.91,0.24-1.04    c-0.05-0.09-0.03-0.21,0.04-0.34c0.06-0.12,0.11-0.31,0.12-0.43c0.01-0.28-0.43-0.8-0.73-0.87c-0.12-0.03-0.4-0.16-0.63-0.28    c-0.23-0.13-0.57-0.27-0.77-0.33c-0.31-0.08-0.38-0.14-0.51-0.45c-0.23-0.53-0.61-0.85-1.75-1.45l-1.04-0.54L45,52.95    c-0.95-0.02-1.56,0.07-2.01,0.31c-0.4,0.21-1.28,1.11-1.73,1.77c-0.38,0.56-1.12,1.77-1.12,1.84c0,0.02-0.09,0.23-0.2,0.48    c-0.45,0.98-1.04,2.61-1.34,3.66c-0.07,0.25-0.31,0.76-0.53,1.13c-0.68,1.12-1.38,2.31-1.67,2.86c-0.15,0.28-0.36,0.66-0.46,0.83    c-0.1,0.17-0.27,0.48-0.39,0.69c-0.12,0.21-0.32,0.54-0.46,0.75c-0.14,0.21-0.25,0.42-0.25,0.47c0,0.05-0.06,0.14-0.12,0.2    c-0.07,0.06-0.24,0.34-0.38,0.64c-0.14,0.3-0.45,0.88-0.7,1.3c-0.25,0.42-0.45,0.78-0.45,0.82c0,0.04-0.03,0.07-0.07,0.09    c-0.08,0.04-0.74,0.92-1.07,1.45c-0.56,0.88-2.02,2.77-2.36,3.05c-0.47,0.4-1.03,0.74-1.19,0.74c-0.09,0-0.12-0.09-0.12-0.29    c0-0.16-0.04-0.31-0.09-0.34c-0.05-0.03-0.07-0.15-0.04-0.28c0.06-0.26,0.2-1.67,0.26-2.72c0.02-0.42,0.08-0.77,0.13-0.8    c0.08-0.05,0.18-0.52,0.35-1.66c0.09-0.62,0.12-0.71,0.28-0.73c0.1-0.01,0.43-0.24,0.73-0.5c0.31-0.26,0.63-0.52,0.73-0.57    c0.09-0.05,0.26-0.23,0.37-0.4c0.11-0.17,0.25-0.3,0.3-0.3c0.1,0,1.25-1.34,1.61-1.87c0.1-0.15,0.2-0.36,0.23-0.48    c0.03-0.12,0.11-0.24,0.17-0.26c0.07-0.02,0.12-0.1,0.12-0.17c0-0.08,0.05-0.22,0.12-0.33c0.14-0.21,0.74-1.87,0.91-2.5    c0.06-0.22,0.09-0.62,0.07-0.89c-0.03-0.41-0.01-0.52,0.13-0.66c0.14-0.14,0.15-0.2,0.07-0.42c-0.05-0.14-0.16-0.27-0.24-0.3    c-0.08-0.02-0.25-0.13-0.37-0.23c-0.45-0.35-1.13-0.73-1.33-0.73c-0.11,0-0.26-0.03-0.34-0.07c-0.51-0.26-0.57-0.27-0.81-0.17    c-0.14,0.06-0.32,0.11-0.42,0.12c-0.48,0.06-1.6,0.74-2.09,1.26c-0.61,0.65-1.27,1.47-1.66,2.05c-0.84,1.26-1.79,3.46-2.17,5.03    c-0.2,0.83-0.37,1.25-0.98,2.46c-0.75,1.49-1.46,3.18-1.7,4.06c-0.07,0.27-0.19,0.63-0.25,0.78c-0.06,0.16-0.28,0.74-0.49,1.29    c-0.21,0.55-0.59,1.54-0.86,2.21c-0.27,0.67-0.67,1.77-0.89,2.46c-0.5,1.55-1.85,4.53-2.09,4.61c-0.06,0.02-0.09-0.1-0.08-0.33    c0.01-0.57-0.11-1.76-0.19-1.86c-0.05-0.06-0.05-0.14,0-0.22c0.1-0.16,0.1-0.54,0-0.73c-0.05-0.09-0.05-0.25,0-0.43    c0.04-0.15,0.1-0.9,0.12-1.66c0.02-0.76,0.08-1.63,0.13-1.92c0.05-0.3,0.11-0.78,0.13-1.09c0.02-0.3,0.1-0.78,0.17-1.06    c0.07-0.28,0.1-0.56,0.07-0.61c-0.03-0.05-0.01-0.3,0.05-0.56c0.05-0.26,0.1-0.71,0.09-1c0-0.28,0.03-0.54,0.07-0.57    c0.05-0.03,0.06-0.18,0.03-0.38c-0.03-0.2-0.02-0.38,0.04-0.45c0.12-0.15,0.2-0.98,0.18-2.02c-0.01-0.69-0.04-0.9-0.19-1.14    c-0.1-0.17-0.21-0.3-0.24-0.3c-0.04,0-0.16-0.09-0.26-0.2c-0.2-0.21-0.77-0.43-1.36-0.52c-0.43-0.07-0.72,0.06-1.42,0.63    c-0.56,0.46-1.93,2.03-1.93,2.22c0,0.07-0.05,0.15-0.11,0.18c-0.06,0.04-0.31,0.38-0.55,0.75c-0.47,0.73-0.63,0.86-0.55,0.42    c0.02-0.15,0.09-0.68,0.14-1.19c0.05-0.51,0.13-0.98,0.17-1.06c0.04-0.08,0.07-0.31,0.07-0.52c0-0.47,0.19-0.95,0.46-1.17    c0.11-0.09,0.38-0.35,0.6-0.58c0.22-0.22,0.59-0.6,0.83-0.83c0.47-0.46,1.47-1.67,2.1-2.56c0.21-0.3,0.46-0.64,0.56-0.76    c0.1-0.13,0.17-0.28,0.17-0.35c0-0.07,0.06-0.17,0.12-0.23c0.07-0.06,0.19-0.24,0.27-0.4c0.08-0.16,0.27-0.48,0.43-0.7    c0.16-0.22,0.41-0.63,0.55-0.92c0.38-0.74,0.57-1.1,0.62-1.14c0.05-0.05,0.18-0.32,0.63-1.29c0.63-1.37,0.69-1.53,0.68-1.8    c-0.01-0.25,0.17-0.87,0.36-1.26c0.04-0.07,0.09-0.28,0.12-0.46c0.03-0.18,0.11-0.43,0.18-0.56c0.37-0.74,0.59-3.48,0.33-4.14    c-0.03-0.07-0.09-0.29-0.14-0.5c-0.07-0.28-0.24-0.52-0.65-0.95c-0.31-0.32-0.62-0.65-0.7-0.74c-0.22-0.24-0.66-0.4-1.07-0.4    c-0.2,0-0.69-0.07-1.09-0.16c-0.51-0.11-0.78-0.14-0.88-0.08c-0.08,0.05-0.17,0.07-0.21,0.06c-0.04-0.01-0.21,0.05-0.39,0.13    c-0.17,0.08-0.35,0.14-0.39,0.14c-0.05,0-0.33,0.28-1.36,1.42c-0.97,1.06-2.19,3.14-2.82,4.8c-0.1,0.28-0.25,0.61-0.32,0.75    c-0.08,0.14-0.13,0.31-0.13,0.38c0,0.08-0.03,0.16-0.08,0.21c-0.11,0.11-0.52,1.48-0.87,2.85c-0.16,0.65-0.34,1.28-0.38,1.4    c-0.05,0.12-0.14,0.52-0.21,0.9c-0.07,0.38-0.16,0.87-0.21,1.1c-0.05,0.23-0.12,0.58-0.16,0.79C9.6,62.2,9.49,62.69,9.4,63.08    C9.2,63.99,9,65.17,8.9,66.17c-0.05,0.44-0.16,1.3-0.26,1.92l-0.18,1.13l-0.49,0.32c-0.27,0.17-0.51,0.36-0.55,0.41    c-0.04,0.05-0.17,0.15-0.31,0.22c-0.14,0.07-0.51,0.3-0.83,0.51c-0.79,0.52-2.05,1.16-2.29,1.16c-0.05,0-0.27,0.09-0.51,0.2    c-0.24,0.11-0.58,0.24-0.76,0.28c-0.18,0.05-0.59,0.16-0.91,0.26c-0.35,0.11-0.82,0.18-1.17,0.18c-0.56,0-0.6,0.01-0.63,0.19    c-0.05,0.25,0.29,0.67,0.73,0.91C1,74,1.2,74.03,1.93,74.03c0.83,0,0.95-0.03,2.15-0.43c1.1-0.37,1.76-0.61,2.79-1.04    C7,72.5,7.24,72.4,7.4,72.34c0.16-0.06,0.35-0.19,0.43-0.28c0.08-0.1,0.16-0.15,0.19-0.13c0.07,0.08,0.05,0.99-0.04,1.74    c-0.17,1.41-0.26,2.63-0.21,2.81c0.02,0.1,0.01,0.2-0.03,0.23c-0.04,0.03-0.08,0.26-0.1,0.53c-0.04,0.68,0.02,3.13,0.07,3.23    c0.03,0.04,0.05,0.28,0.05,0.54c0.01,0.85,0.13,2.29,0.21,2.55c0.07,0.22,0.16,0.29,0.64,0.49c0.31,0.13,0.67,0.34,0.81,0.47    c0.34,0.33,0.99,0.66,1.29,0.66c0.13,0,0.26,0.04,0.29,0.08c0.12,0.21,0.29,0.06,0.41-0.37c0.07-0.25,0.19-0.57,0.26-0.71    c0.07-0.14,0.1-0.32,0.08-0.4c-0.05-0.15,0.14-0.64,0.28-0.72c0.09-0.06,0.02-0.35-0.12-0.47c-0.08-0.06-0.09-0.14-0.04-0.23    c0.04-0.08,0.1-0.3,0.13-0.5c0.03-0.2,0.11-0.47,0.18-0.61c0.1-0.2,0.1-0.27,0.02-0.37c-0.08-0.09-0.08-0.15-0.01-0.23    c0.15-0.18,0.27-0.95,0.3-1.98c0.02-0.53,0.07-1.15,0.12-1.38c0.05-0.23,0.11-0.53,0.14-0.67c0.03-0.14,0.14-0.48,0.24-0.75    c0.11-0.27,0.29-0.89,0.41-1.36c0.11-0.47,0.28-1,0.36-1.16c0.81-1.66,1.33-2.53,1.52-2.53c0.03,0,0.07-0.08,0.07-0.16    c0-0.14,0.26-0.53,0.69-1.02c0.06-0.07,0.14-0.2,0.17-0.27c0.03-0.07,0.09-0.14,0.13-0.14c0.13,0,0.11,0.44-0.04,0.88    c-0.23,0.69-0.69,2.82-0.83,3.88c-0.08,0.58-0.21,1.32-0.29,1.67c-0.44,1.75-0.69,4.33-0.63,6.43c0.02,0.85,0.08,1.71,0.13,1.92    c0.05,0.21,0.12,0.63,0.18,0.96c0.33,2.07,1.17,2.97,2.78,3.01c0.65,0.01,0.81-0.07,1.03-0.5c0.1-0.2,0.23-0.38,0.3-0.41    c0.13-0.05,0.54-0.84,0.54-1.03c0-0.06,0.04-0.11,0.08-0.11c0.05,0,0.08-0.06,0.08-0.14c0-0.08,0.05-0.2,0.11-0.27    c0.06-0.07,0.16-0.36,0.22-0.63c0.06-0.28,0.17-0.6,0.25-0.72c0.08-0.12,0.2-0.38,0.27-0.58c0.14-0.43,0.25-0.72,0.8-2.16    c0.22-0.58,0.48-1.29,0.58-1.59c0.1-0.3,0.28-0.78,0.39-1.09c0.11-0.3,0.2-0.66,0.2-0.8c0-0.14,0.03-0.29,0.07-0.33    c0.04-0.04,0.15-0.33,0.25-0.64s0.24-0.67,0.3-0.79c0.07-0.13,0.12-0.27,0.12-0.33c0-0.05,0.05-0.23,0.12-0.38    c0.06-0.15,0.18-0.5,0.27-0.78c0.08-0.28,0.18-0.54,0.22-0.6c0.04-0.05,0.08-0.28,0.1-0.51c0.02-0.23,0.06-0.47,0.1-0.53    c0.04-0.06,0.08-0.17,0.09-0.24c0.02-0.15,0.33-0.99,0.38-1.04c0.02-0.02,0.03,0.46,0.03,1.07c0,1.93,0.48,3.35,1.4,4.15    c0.54,0.46,0.83,0.58,1.53,0.62c0.31,0.02,0.74,0.06,0.98,0.09c0.29,0.04,0.49,0.03,0.62-0.05c0.11-0.06,0.31-0.13,0.45-0.16    c0.14-0.03,0.25-0.1,0.25-0.16c0-0.06,0.13-0.15,0.3-0.21c0.32-0.11,0.95-0.58,1.02-0.77c0.03-0.07,0.08-0.12,0.14-0.12    c0.15,0,1.15-1.1,1.4-1.54c0.13-0.23,0.31-0.49,0.39-0.58c0.23-0.24,0.69-0.94,0.69-1.04c0-0.04,0.07-0.13,0.16-0.19    c0.09-0.06,0.24-0.27,0.34-0.46c0.1-0.19,0.33-0.52,0.51-0.72c0.18-0.2,0.33-0.4,0.33-0.43c0-0.03,0.15-0.27,0.33-0.54    c0.31-0.46,0.46-0.73,1.22-2.18c0.4-0.76,0.64-1.19,0.84-1.49l0.14-0.22l0.05,0.41c0.03,0.23,0.06,0.68,0.06,1.01    c0,0.33,0.04,0.62,0.08,0.65c0.04,0.03,0.1,0.22,0.13,0.44c0.07,0.53,0.27,0.91,0.65,1.29c0.3,0.3,0.95,0.58,1.38,0.61    c0.11,0.01,0.4,0.06,0.63,0.12c0.53,0.13,0.99,0.02,1.29-0.3c0.25-0.27,0.9-1.47,0.9-1.68c0-0.08,0.05-0.23,0.12-0.35    c0.24-0.43,0.46-0.91,0.46-1.02c0-0.06,0.11-0.32,0.24-0.57c0.13-0.25,0.36-0.68,0.51-0.96c0.14-0.28,0.35-0.65,0.46-0.83    c0.11-0.18,0.2-0.42,0.2-0.52c0-0.24,0.15-0.56,0.5-1.11c0.16-0.25,0.32-0.52,0.35-0.58c0.03-0.07,0.2-0.37,0.39-0.67    c0.18-0.3,0.42-0.72,0.54-0.93c0.37-0.69,0.42-0.63,0.3,0.27c-0.04,0.3-0.12,1.09-0.17,1.76c-0.1,1.34-0.02,2.19,0.35,3.36    c0.22,0.69,0.87,1.65,1.37,2c0.73,0.51,2.76,0.64,2.76,0.17c0-0.06,0.18-0.25,0.41-0.45c0.23-0.2,0.41-0.39,0.41-0.43    c0-0.04,0.11-0.25,0.25-0.45c0.13-0.2,0.25-0.4,0.25-0.44c0-0.13,0.4-0.89,0.53-1c0.07-0.06,0.15-0.22,0.18-0.37    c0.03-0.15,0.16-0.48,0.29-0.74c0.13-0.26,0.24-0.53,0.24-0.58c0-0.06,0.12-0.34,0.27-0.63c0.6-1.17,1.22-2.52,1.22-2.65    c0-0.17,0.27-0.73,0.44-0.92c0.07-0.08,0.14-0.23,0.14-0.31c0-0.08,0.03-0.15,0.07-0.15c0.04,0,0.12,0.37,0.17,0.81    c0.19,1.51,0.75,3.39,1.33,4.47c0.39,0.72,1.09,1.5,1.65,1.83c0.61,0.36,0.99,0.42,2.25,0.38c0.82-0.03,0.91-0.05,1.58-0.38    c0.6-0.29,0.82-0.46,1.43-1.11c0.73-0.78,1.21-1.48,1.21-1.8c0-0.1,0.27-0.72,0.6-1.38c0.33-0.66,0.67-1.35,0.75-1.53    c0.08-0.18,0.22-0.46,0.31-0.62c0.22-0.39,0.5-1.05,0.5-1.19c0-0.06,0.13-0.35,0.29-0.65c0.16-0.29,0.29-0.59,0.29-0.65    c0-0.06,0.08-0.25,0.19-0.42c0.11-0.17,0.32-0.58,0.47-0.92c0.16-0.33,0.32-0.61,0.36-0.61c0.04,0,0.05,0.06,0.03,0.13    c-0.06,0.16-0.07,4.47-0.01,5.8c0.15,3.43,0.47,4.58,1.5,5.36c0.38,0.29,0.46,0.32,0.99,0.32c0.32,0,0.62,0,0.66-0.01    c0.05-0.01,0.29-0.05,0.54-0.1c0.4-0.07,0.5-0.13,0.84-0.5c0.21-0.23,0.51-0.67,0.65-0.97c0.15-0.3,0.35-0.66,0.45-0.8    c0.1-0.14,0.21-0.36,0.24-0.49c0.03-0.13,0.15-0.39,0.26-0.56c0.11-0.18,0.2-0.36,0.2-0.41c0-0.09,0.26-0.68,0.33-0.75    c0.07-0.07,0.47-0.92,0.57-1.24c0.05-0.16,0.07-0.37,0.04-0.48c-0.04-0.14-0.01-0.21,0.08-0.25c0.07-0.03,0.13-0.09,0.13-0.15    c0-0.05,0.07-0.24,0.17-0.41c0.09-0.17,0.22-0.53,0.29-0.78c0.07-0.25,0.19-0.62,0.28-0.81c0.3-0.66,0.68-1.78,0.68-2.03    c0-0.06,0.07-0.23,0.17-0.39c0.09-0.15,0.2-0.45,0.25-0.65c0.15-0.68,0.3-1.29,0.36-1.41c0.03-0.07,0.11-0.38,0.17-0.68    c0.06-0.3,0.17-0.64,0.24-0.75c0.07-0.11,0.15-0.35,0.18-0.53c0.03-0.18,0.1-0.41,0.16-0.5c0.1-0.15,0.16-0.38,0.26-1    c0.02-0.14,0.1-0.4,0.17-0.58c0.07-0.18,0.17-0.42,0.21-0.53c0.13-0.33,0.18-0.13,0.08,0.33c-0.16,0.81-0.27,2.09-0.18,2.2    c0.06,0.07,0.05,0.13-0.04,0.2c-0.08,0.07-0.12,0.25-0.12,0.5c0,0.22-0.04,0.6-0.08,0.85c-0.04,0.25-0.1,0.64-0.12,0.87    c-0.02,0.23-0.1,0.73-0.18,1.13c-0.15,0.75-0.21,1.1-0.22,1.38c0,0.09-0.06,0.45-0.12,0.8c-0.08,0.43-0.09,0.76-0.05,1.02    c0.04,0.21,0.06,0.4,0.04,0.42c-0.02,0.02-0.05,0.29-0.07,0.6s-0.08,0.64-0.13,0.73c-0.06,0.11-0.06,0.2-0.01,0.26    c0.04,0.06,0.14,0.29,0.22,0.53c0.08,0.24,0.22,0.48,0.32,0.55c0.16,0.11,0.73,0.21,1.55,0.27c0.16,0.01,0.35,0.05,0.43,0.08    c0.27,0.11,0.52,0.01,0.53-0.19c0-0.1,0.07-0.23,0.14-0.29c0.16-0.12,0.31-0.49,0.31-0.79c0-0.12,0.06-0.29,0.13-0.37    c0.07-0.08,0.14-0.28,0.16-0.44c0.01-0.16,0.08-0.4,0.16-0.54c0.07-0.14,0.13-0.33,0.13-0.42c0-0.09,0.04-0.19,0.08-0.22    c0.04-0.03,0.08-0.14,0.08-0.25c0-0.11,0.04-0.23,0.09-0.25c0.05-0.03,0.07-0.1,0.05-0.17c-0.02-0.07-0.01-0.21,0.04-0.33    c0.04-0.12,0.09-0.33,0.11-0.48c0.02-0.15,0.08-0.4,0.13-0.56c0.1-0.29,0.31-1.14,0.37-1.46c0.02-0.09,0.09-0.28,0.16-0.42    c0.08-0.14,0.13-0.32,0.13-0.42c0-0.09,0.06-0.28,0.13-0.42c0.07-0.14,0.2-0.46,0.28-0.72c0.08-0.26,0.23-0.63,0.32-0.83    c0.1-0.2,0.17-0.44,0.17-0.53c0-0.2,0.21-0.68,0.34-0.75c0.04-0.03,0.07-0.14,0.07-0.26c0-0.12,0.07-0.31,0.15-0.44    c0.18-0.27,0.36-0.84,0.29-0.94c-0.03-0.04,0.01-0.14,0.09-0.23c0.07-0.08,0.11-0.21,0.09-0.28c-0.02-0.07,0.01-0.15,0.07-0.17    c0.06-0.03,0.16-0.22,0.22-0.43c0.06-0.22,0.14-0.41,0.18-0.43c0.04-0.02,0.07-0.11,0.07-0.2c0-0.09,0.09-0.35,0.21-0.6    c0.12-0.24,0.21-0.48,0.21-0.54c0-0.06,0.07-0.23,0.15-0.38c0.08-0.15,0.18-0.39,0.22-0.53c0.03-0.14,0.15-0.37,0.26-0.51    c0.11-0.14,0.22-0.36,0.25-0.48c0.03-0.13,0.08-0.24,0.12-0.26c0.04-0.02,0.13-0.25,0.21-0.52c0.08-0.27,0.19-0.54,0.24-0.61    c0.05-0.07,0.13-0.2,0.17-0.29c0.06-0.14,0.07-0.15,0.1-0.03c0.02,0.08-0.17,0.79-0.42,1.59c-0.25,0.79-0.52,1.73-0.59,2.07    c-0.13,0.62-0.25,1.08-0.49,1.88c-0.07,0.23-0.2,0.83-0.29,1.34c-0.09,0.51-0.24,1.25-0.34,1.67c-0.09,0.41-0.24,1.22-0.34,1.79    c-0.09,0.58-0.24,1.38-0.33,1.8c-0.09,0.42-0.18,0.86-0.2,1c-0.02,0.14-0.13,0.7-0.25,1.25c-0.17,0.85-0.25,1.38-0.35,2.5    c-0.01,0.09-0.06,0.45-0.12,0.79c-0.15,0.89-0.16,3.76-0.01,4.34c0.16,0.61,0.47,1.38,0.72,1.74c0.11,0.17,0.2,0.38,0.2,0.48    c0,0.45,0.72,0.71,1.87,0.69c0.46-0.01,0.87-0.05,0.93-0.09c0.06-0.05,0.13-0.06,0.17-0.03c0.07,0.04,0.41-0.19,0.89-0.59    c0.17-0.15,0.7-0.89,0.7-0.98c0-0.03,0.13-0.25,0.29-0.5c0.16-0.24,0.3-0.55,0.32-0.7c0.02-0.14,0.08-0.32,0.13-0.38    c0.06-0.07,0.08-0.16,0.06-0.2c-0.02-0.04,0.14-0.45,0.36-0.9c0.22-0.45,0.41-0.9,0.41-1c0-0.1,0.05-0.28,0.12-0.41    c0.07-0.13,0.12-0.31,0.12-0.4c0-0.14,0.05-0.3,0.3-0.88c0.06-0.14,0.1-0.32,0.1-0.41c0-0.09,0.07-0.33,0.17-0.53    c0.13-0.27,0.15-0.4,0.09-0.47c-0.05-0.06-0.06-0.16-0.01-0.25c0.18-0.37,0.26-0.73,0.17-0.83c-0.06-0.07-0.04-0.11,0.05-0.15    c0.1-0.04,0.12-0.11,0.09-0.25c-0.03-0.13-0.01-0.22,0.07-0.25c0.07-0.03,0.12-0.14,0.12-0.25c0-0.12,0.04-0.23,0.08-0.26    c0.15-0.1,0.4-0.84,0.46-1.38c0.01-0.07,0.06-0.21,0.12-0.32c0.06-0.11,0.12-0.29,0.14-0.42c0.04-0.23,0.4-1.43,0.52-1.72    c0.04-0.09,0.15-0.43,0.26-0.75c0.1-0.33,0.2-0.64,0.22-0.71c0.05-0.15,0.31,0.43,0.45,0.99c0.05,0.21,0.13,0.41,0.17,0.43    c0.04,0.03,0.1,0.21,0.12,0.4c0.02,0.19,0.07,0.31,0.1,0.26c0.04-0.06,0.1-0.03,0.18,0.1c0.28,0.43,0.28,0.43,0.07,0.38    c-0.17-0.05-0.16-0.02,0.09,0.24c0.44,0.46,0.72,0.55,2.1,0.66c0.44,0.03,0.6,0.02,0.71-0.08c0.08-0.07,0.27-0.14,0.42-0.16    c0.15-0.02,0.32-0.09,0.36-0.15c0.05-0.07,0.2-0.18,0.34-0.25c0.14-0.07,0.31-0.22,0.38-0.33c0.07-0.11,0.34-0.46,0.61-0.78    c0.69-0.83,1.11-1.44,1.11-1.59c0-0.19,0.22-0.61,1.03-2c0.22-0.37,0.5-0.89,0.63-1.17c0.58-1.21,1.49-2.71,1.65-2.71    c0.07,0,0.14,0.66,0.09,0.88c-0.01,0.05-0.04,0.72-0.06,1.5c-0.05,1.78-0.08,2.27-0.13,2.35c-0.06,0.1-0.19,1.39-0.27,2.57    c-0.02,0.37-0.08,1.01-0.12,1.42c-0.04,0.41-0.06,0.77-0.04,0.8c0.02,0.03-0.46,0.42-1.05,0.87c-1.3,0.97-1.8,1.43-3.19,2.97    c-1.05,1.15-2.13,2.56-2.06,2.68c0.02,0.03-0.02,0.09-0.07,0.12c-0.13,0.08-0.73,0.9-0.87,1.2c-0.06,0.12-0.26,0.47-0.47,0.79    c-0.21,0.33-0.46,0.75-0.56,0.96c-0.1,0.2-0.32,0.6-0.46,0.87c-0.34,0.62-0.62,1.17-0.79,1.55c-0.58,1.35-0.77,1.82-1.06,2.59    c-0.41,1.09-0.95,2.81-1.06,3.37c-0.05,0.24-0.14,0.68-0.21,1.01c-0.33,1.48-0.46,2.6-0.47,4.13c-0.01,1.59,0.08,2.32,0.41,3.37    c0.11,0.35,0.21,0.52,0.33,0.56c0.1,0.03,0.18,0.12,0.18,0.2c0,0.11,0.05,0.13,0.22,0.08c0.38-0.09,0.94-0.05,1.92,0.13    c0.83,0.16,1.01,0.17,1.45,0.08c0.51-0.1,1.17-0.37,1.26-0.52c0.03-0.04,0.1-0.07,0.17-0.07c0.07,0,0.27-0.11,0.46-0.25    c0.19-0.14,0.39-0.25,0.44-0.25c0.17,0,2.03-1.99,2.03-2.17c0-0.09,0.04-0.17,0.08-0.17c0.04,0,0.11-0.09,0.14-0.19    c0.03-0.1,0.1-0.23,0.16-0.27c0.05-0.05,0.15-0.25,0.21-0.44c0.06-0.19,0.14-0.35,0.18-0.35c0.04,0,0.07-0.06,0.07-0.13    c0-0.07,0.03-0.13,0.07-0.13c0.04,0,0.15-0.2,0.26-0.44c0.1-0.24,0.22-0.49,0.26-0.56c0.04-0.07,0.11-0.2,0.15-0.29    c0.04-0.09,0.18-0.35,0.31-0.58c0.13-0.23,0.31-0.66,0.39-0.96c0.08-0.3,0.2-0.6,0.26-0.67c0.16-0.19,0.38-0.88,0.32-1.03    c-0.03-0.07-0.01-0.15,0.04-0.18c0.12-0.07,0.38-0.67,0.46-1.04c0.03-0.16,0.09-0.35,0.13-0.42c0.12-0.23,0.33-0.99,0.33-1.19    c0-0.11,0.03-0.24,0.07-0.28c0.04-0.04,0.14-0.38,0.22-0.75c0.08-0.37,0.18-0.73,0.22-0.81c0.04-0.08,0.1-0.31,0.12-0.5    c0.02-0.19,0.08-0.4,0.12-0.45c0.04-0.05,0.07-0.15,0.06-0.21c-0.01-0.06,0.03-0.2,0.09-0.3c0.06-0.11,0.09-0.29,0.07-0.41    c-0.02-0.13,0.02-0.32,0.12-0.48c0.13-0.22,0.14-0.31,0.07-0.5c-0.07-0.2-0.06-0.25,0.07-0.35c0.12-0.08,0.17-0.22,0.17-0.5    c0.01-0.43,0.04-0.66,0.11-0.86c0.08-0.23,0.23-1.14,0.23-1.37c0-0.13,0.06-0.41,0.14-0.64c0.08-0.24,0.12-0.55,0.09-0.74    c-0.02-0.18-0.01-0.36,0.02-0.4c0.06-0.07,0.09-0.31,0.21-1.95c0.03-0.34,0.08-0.67,0.12-0.71c0.04-0.05,0.04-0.13,0-0.19    c-0.04-0.06-0.02-0.35,0.04-0.66c0.06-0.31,0.13-0.94,0.16-1.39c0.07-0.91,0.1-1.01,0.35-1.15c0.1-0.05,0.45-0.26,0.78-0.44    c0.61-0.34,2.66-1.26,3.22-1.44c0.91-0.29,2.83-0.63,3.52-0.63c0.7,0,0.78,0.02,1.22,0.28c0.27,0.15,0.52,0.37,0.58,0.5    c0.09,0.18,0.17,0.23,0.45,0.25c0.31,0.02,0.34,0,0.38-0.19C119.06,54.51,118.79,53.98,118.48,53.74z M59.63,53.47    c0.05-0.02,0.1-0.25,0.12-0.53c0.03-0.5,0.16-1.12,0.31-1.59c0.05-0.14,0.08-0.39,0.07-0.56c-0.01-0.17,0.02-0.38,0.06-0.46    c0.17-0.34,0.25-0.73,0.23-1.07c-0.02-0.24,0.01-0.4,0.08-0.46c0.06-0.05,0.09-0.15,0.07-0.21c-0.03-0.07,0-0.18,0.05-0.24    c0.05-0.07,0.1-0.26,0.11-0.44c0-0.18,0.05-0.35,0.11-0.4c0.06-0.05,0.12-0.19,0.14-0.33c0.02-0.14,0.06-0.36,0.09-0.5    c0.03-0.14,0.06-0.41,0.07-0.6c0.01-0.21,0.09-0.43,0.19-0.54c0.09-0.11,0.21-0.43,0.27-0.73c0.06-0.3,0.13-0.58,0.16-0.63    c0.03-0.05,0.06-0.23,0.07-0.4c0.01-0.18,0.08-0.4,0.15-0.5c0.08-0.13,0.1-0.21,0.04-0.28c-0.06-0.07-0.03-0.13,0.09-0.2    c0.1-0.05,0.16-0.12,0.13-0.16c-0.06-0.1,0.18-0.76,0.41-1.12c0.11-0.17,0.2-0.4,0.2-0.51c0-0.11,0.09-0.36,0.19-0.56    c0.11-0.2,0.22-0.47,0.24-0.62c0.03-0.15,0.14-0.4,0.26-0.58c0.12-0.18,0.21-0.38,0.21-0.46c0-0.08,0.03-0.17,0.07-0.2    c0.04-0.03,0.14-0.22,0.22-0.44c0.14-0.38,0.25-0.54,0.83-1.26c0.14-0.17,0.39-0.53,0.56-0.79c0.39-0.6,0.94-1.17,1.09-1.11    c0.06,0.02,0.21-0.03,0.32-0.11c0.22-0.18,0.73-0.26,0.83-0.13c0.03,0.05,0.06,0.29,0.06,0.54c0,0.93-0.86,4.06-1.79,6.55    c-0.12,0.33-0.23,0.66-0.24,0.76c-0.01,0.1-0.13,0.38-0.25,0.62c-0.42,0.84-0.87,1.92-0.83,2c0.02,0.04-0.05,0.18-0.16,0.3    c-0.12,0.13-0.21,0.3-0.21,0.38c0,0.22-0.43,1.15-0.54,1.15c-0.05,0-0.2,0.26-0.35,0.57c-0.34,0.72-1.01,1.94-1.15,2.11    c-0.06,0.08-0.11,0.18-0.11,0.23c0,0.05-0.15,0.33-0.33,0.59c-0.18,0.27-0.33,0.51-0.33,0.54c0,0.02-0.19,0.36-0.42,0.73    c-0.23,0.38-0.43,0.73-0.44,0.78c-0.01,0.05-0.07,0.15-0.14,0.21c-0.07,0.07-0.25,0.3-0.41,0.51c-0.29,0.38-0.5,0.5-0.5,0.28    C59.55,53.55,59.58,53.48,59.63,53.47z M30.08,66.41c0.11-0.24,0.21-0.49,0.21-0.54c0-0.05,0.13-0.35,0.28-0.67    c0.16-0.32,0.31-0.73,0.34-0.91c0.03-0.18,0.11-0.41,0.17-0.5c0.06-0.09,0.11-0.23,0.11-0.31c0-0.08,0.03-0.15,0.07-0.15    c0.04,0,0.14-0.15,0.22-0.33c0.08-0.18,0.24-0.41,0.34-0.51c0.11-0.1,0.19-0.22,0.19-0.26c0-0.12,0.84-0.92,1.12-1.08    c0.32-0.17,0.37-0.18,0.37-0.05c0,0.25-0.34,1.42-0.5,1.74c-0.17,0.33-0.47,0.83-0.96,1.58c-0.24,0.37-1.99,2.36-2.1,2.4    C29.91,66.84,29.96,66.65,30.08,66.41z M13.07,64.75c0.15-0.75,0.18-1.06,0.1-1.19c-0.06-0.11-0.06-0.17,0.03-0.22    c0.08-0.05,0.1-0.14,0.06-0.29c-0.04-0.14-0.01-0.33,0.08-0.51c0.08-0.16,0.12-0.32,0.09-0.35c-0.03-0.04,0.03-0.29,0.12-0.57    c0.09-0.27,0.2-0.78,0.25-1.12c0.05-0.34,0.12-0.73,0.17-0.86c0.05-0.13,0.1-0.46,0.12-0.76c0.05-0.95,0.08-1.1,0.23-1.39    c0.08-0.15,0.12-0.3,0.1-0.32c-0.03-0.03,0.01-0.14,0.09-0.25c0.09-0.14,0.12-0.3,0.09-0.49c-0.02-0.15-0.01-0.3,0.02-0.32    c0.04-0.02,0.09-0.18,0.11-0.36c0.08-0.63,0.32-1.74,0.44-2c0.06-0.15,0.12-0.37,0.12-0.48c0-0.11,0.09-0.41,0.21-0.67    c0.11-0.26,0.21-0.54,0.21-0.63c0-0.08,0.05-0.19,0.12-0.22c0.13-0.08,0.88-1.17,0.88-1.29c0-0.05,0.17-0.26,0.39-0.49    c0.22-0.23,0.51-0.53,0.65-0.68c0.47-0.51,0.61-0.57,1.15-0.52c0.46,0.04,0.52,0.07,0.85,0.44c0.25,0.28,0.36,0.5,0.41,0.77    c0.07,0.46,0.08,1.44,0.01,1.84c-0.09,0.5-0.27,1.15-0.33,1.22c-0.03,0.03-0.06,0.17-0.06,0.3c0,0.14-0.07,0.38-0.15,0.55    c-0.24,0.48-0.43,0.93-0.43,1.04c0,0.09-0.38,0.95-0.59,1.34c-0.04,0.08-0.08,0.24-0.08,0.35c0,0.12-0.05,0.23-0.11,0.25    c-0.06,0.02-0.11,0.09-0.11,0.16c0,0.14-0.37,0.91-0.46,0.95c-0.04,0.02-0.17,0.24-0.29,0.5c-0.12,0.26-0.34,0.64-0.48,0.85    c-0.14,0.21-0.32,0.51-0.39,0.67c-0.07,0.16-0.22,0.43-0.33,0.58c-0.1,0.16-0.24,0.39-0.3,0.51c-0.06,0.12-0.23,0.35-0.38,0.52    c-0.14,0.16-0.35,0.47-0.45,0.67c-0.1,0.2-0.26,0.44-0.35,0.52c-0.09,0.08-0.17,0.2-0.17,0.26c0,0.06-0.07,0.18-0.17,0.25    c-0.09,0.08-0.17,0.19-0.17,0.25c0,0.06-0.31,0.42-0.68,0.8C13.03,65.02,13.02,65.03,13.07,64.75z M48.31,55.92    c-0.06,0.23-0.26,0.61-0.47,0.88c-0.31,0.4-0.77,1.1-1.1,1.66c-0.08,0.14-0.71,1.04-1.02,1.44c-0.09,0.11-0.32,0.51-0.51,0.88    c-0.19,0.37-0.42,0.74-0.5,0.83c-0.08,0.09-0.24,0.33-0.35,0.54c-0.2,0.39-0.4,0.7-1.02,1.67c-0.39,0.61-0.8,1.27-1.4,2.25    c-0.22,0.37-0.44,0.67-0.47,0.67c-0.08,0,0.01-0.31,0.21-0.78c0.08-0.18,0.23-0.67,0.34-1.09c0.11-0.42,0.28-1.04,0.37-1.39    c0.1-0.34,0.16-0.71,0.14-0.81c-0.02-0.1,0-0.19,0.04-0.19c0.1,0,0.4-0.72,0.4-0.97c0-0.11,0.04-0.2,0.08-0.2    c0.04,0,0.08-0.15,0.08-0.33c0-0.18,0.05-0.37,0.12-0.42c0.06-0.05,0.14-0.32,0.17-0.59c0.04-0.33,0.1-0.51,0.18-0.54    c0.07-0.03,0.1-0.1,0.07-0.18c-0.03-0.08,0-0.21,0.07-0.31c0.07-0.09,0.12-0.26,0.12-0.36c0-0.1,0.04-0.21,0.09-0.25    c0.1-0.07,0.48-0.85,0.61-1.29c0.05-0.16,0.17-0.33,0.26-0.38c0.31-0.16,0.58-0.42,0.7-0.67c0.07-0.14,0.19-0.26,0.29-0.28    c0.09-0.01,0.24-0.06,0.33-0.1c0.27-0.12,0.53-0.15,1.42-0.14l0.84,0.01L48.31,55.92z M105.44,60.16c-0.09,0-0.12,0.17-0.13,0.73    c-0.01,0.4-0.03,0.9-0.05,1.11c-0.02,0.21-0.04,0.63-0.04,0.93c0,0.32-0.06,0.67-0.14,0.82c-0.1,0.19-0.11,0.29-0.04,0.37    c0.11,0.13,0.02,0.65-0.13,0.74c-0.13,0.08-0.14,0.31-0.02,0.31c0.14,0,0.02,0.61-0.15,0.73c-0.13,0.1-0.13,0.1,0.01,0.1    c0.19,0,0.11,0.32-0.14,0.52c-0.16,0.13-0.16,0.15-0.04,0.15c0.12,0,0.14,0.05,0.1,0.35c-0.03,0.19-0.1,0.49-0.15,0.65    c-0.06,0.16-0.13,0.43-0.16,0.61c-0.03,0.18-0.11,0.34-0.17,0.36c-0.13,0.05-0.21,0.32-0.26,0.9c-0.02,0.23-0.07,0.47-0.11,0.55    c-0.04,0.08-0.1,0.34-0.13,0.59c-0.03,0.25-0.12,0.69-0.21,0.99c-0.08,0.29-0.13,0.57-0.11,0.61c0.03,0.04-0.01,0.12-0.07,0.18    c-0.07,0.06-0.18,0.36-0.26,0.68c-0.08,0.33-0.19,0.7-0.26,0.83c-0.06,0.14-0.16,0.42-0.21,0.63c-0.1,0.39-0.16,0.53-0.52,1.36    c-0.12,0.27-0.25,0.65-0.3,0.86c-0.05,0.21-0.14,0.47-0.22,0.58c-0.08,0.13-0.1,0.2-0.04,0.2c0.05,0,0.09,0.06,0.09,0.13    c0,0.07-0.05,0.13-0.12,0.13c-0.06,0-0.31,0.38-0.55,0.86c-0.24,0.47-0.6,1.12-0.81,1.44c-0.46,0.71-1.68,1.94-2.13,2.16    c-0.18,0.09-0.4,0.19-0.47,0.23c-0.08,0.04-0.37,0.07-0.66,0.08c-0.45,0.01-0.58-0.02-0.94-0.23c-0.37-0.22-0.44-0.3-0.61-0.78    c-0.18-0.5-0.19-0.64-0.16-2.21c0.02-1.35,0.06-1.74,0.17-2c0.08-0.18,0.14-0.43,0.13-0.54c-0.01-0.23,0.03-0.43,0.42-1.97    c0.32-1.25,0.39-1.5,0.59-1.94c0.09-0.2,0.16-0.39,0.16-0.43c0-0.04,0.05-0.18,0.12-0.32c0.07-0.14,0.16-0.42,0.19-0.64    c0.04-0.22,0.12-0.44,0.17-0.51c0.06-0.07,0.08-0.13,0.05-0.13c-0.03,0,0.07-0.21,0.22-0.48c0.15-0.27,0.26-0.49,0.25-0.5    c-0.01-0.01,0.08-0.22,0.19-0.46c0.21-0.47,0.31-0.71,0.34-0.88c0.03-0.16,0.38-0.86,0.59-1.21c0.1-0.17,0.19-0.35,0.19-0.4    c0-0.05,0.09-0.22,0.21-0.37c0.11-0.15,0.21-0.33,0.21-0.39c0-0.06,0.06-0.2,0.13-0.3c0.07-0.1,0.1-0.18,0.07-0.18    c-0.03,0,0.04-0.07,0.16-0.17c0.12-0.1,0.22-0.22,0.22-0.28c0-0.14,0.56-0.98,0.75-1.11c0.07-0.05,0.2-0.27,0.29-0.48    c0.09-0.21,0.19-0.38,0.22-0.38c0.04,0,0.07-0.05,0.07-0.12c0-0.07,0.06-0.17,0.14-0.23c0.08-0.06,0.41-0.43,0.73-0.82    c0.33-0.39,0.77-0.91,1-1.15c0.56-0.6,0.61-0.67,0.61-0.77c0-0.05,0.03-0.08,0.07-0.08c0.04,0,0.32-0.24,0.62-0.52    c0.3-0.29,0.67-0.6,0.82-0.69l0.27-0.17l0.02,0.29c0.01,0.16-0.02,0.38-0.08,0.48c-0.08,0.15-0.08,0.21,0,0.29    C105.59,59.97,105.58,60.16,105.44,60.16z M16.24,34.18c0.12,0.74,0.3,1.59,0.41,1.89c0.11,0.3,0.28,0.79,0.38,1.09    c0.1,0.3,0.23,0.6,0.3,0.68c0.06,0.08,0.11,0.19,0.12,0.25c0.02,0.56,2.03,3.01,3.16,3.85c0.16,0.12,0.46,0.37,0.67,0.57    c0.21,0.2,0.63,0.55,0.96,0.8c0.66,0.5,2.94,1.92,3.58,2.22c0.23,0.11,0.51,0.25,0.62,0.32c0.32,0.19,1.34,0.66,1.66,0.78    c0.74,0.26,2.28,0.67,3,0.8c1.65,0.29,1.87,0.33,1.94,0.39c0.04,0.03-0.06,0.31-0.23,0.62c-0.29,0.53-0.3,0.57-0.17,0.76    c0.1,0.15,0.2,0.2,0.42,0.2c0.29,0,0.99-0.27,1.08-0.41c0.03-0.04,0.22-0.1,0.43-0.13c0.36-0.05,0.4-0.04,0.67,0.22    c0.16,0.15,0.48,0.57,0.71,0.93c0.24,0.36,0.46,0.65,0.5,0.65c0.21,0,0.57-0.23,0.97-0.61c0.25-0.24,0.62-0.54,0.84-0.67    c0.45-0.27,0.74-0.26,1.59,0.02c0.27,0.09,0.61,0.17,0.75,0.17c0.29,0,0.33-0.08,0.36-0.88l0.02-0.5l0.42-0.1    c0.23-0.06,0.54-0.14,0.71-0.18c0.16-0.05,0.52-0.14,0.79-0.21c0.46-0.12,0.66-0.19,1.41-0.51c0.14-0.06,0.34-0.15,0.46-0.2    c0.11-0.05,0.63-0.23,1.14-0.39c0.52-0.17,0.96-0.34,0.98-0.38c0.02-0.04,0.12-0.08,0.2-0.08c0.09,0,0.41-0.12,0.72-0.28    c0.32-0.16,0.66-0.33,0.78-0.38c0.12-0.06,0.28-0.15,0.37-0.2c0.53-0.33,0.87-0.56,0.92-0.64c0.03-0.05,0.19-0.16,0.36-0.25    c0.61-0.33,1.81-1.22,1.79-1.32c-0.01-0.06,0.01-0.09,0.06-0.06c0.04,0.03,0.28-0.11,0.52-0.3c0.66-0.52,2.26-2.11,2.4-2.39    c0.07-0.13,0.36-0.55,0.64-0.93c0.29-0.38,0.52-0.72,0.52-0.77c0-0.04,0.04-0.09,0.09-0.11c0.09-0.03,0.55-0.81,0.98-1.68    c0.13-0.27,0.28-0.54,0.32-0.6c0.06-0.09,0.21-0.43,0.44-1.02c0.27-0.69,0.42-1.3,0.53-2.14c0.1-0.7,0.22-3.02,0.18-3.56    c-0.04-0.63-0.26-1.96-0.38-2.3c-0.04-0.12-0.14-0.43-0.21-0.7c-0.16-0.58-0.81-1.72-1.46-2.53c-0.25-0.32-0.55-0.72-0.67-0.89    c-0.12-0.18-0.33-0.4-0.47-0.5c-1.92-1.41-1.92-1.41-2.83-1.79c-0.17-0.07-0.38-0.17-0.46-0.21c-0.15-0.08-0.89-0.3-1.98-0.58    c-1.18-0.3-2.15-0.44-3.3-0.47c-1.17-0.03-1.83,0.07-2.99,0.43c-0.58,0.18-1.83,0.72-1.86,0.8c-0.02,0.04-0.09,0.07-0.15,0.07    c-0.14,0-0.72,0.33-0.76,0.44c-0.02,0.04-0.07,0.07-0.13,0.07c-0.1,0-0.41,0.21-1.36,0.92c-0.47,0.35-0.93,0.58-0.99,0.49    c-0.08-0.14,0.29-1.49,0.6-2.15c0.11-0.24,0.28-0.67,0.36-0.93c0.08-0.27,0.19-0.56,0.24-0.65c0.22-0.42,0.67-1.44,0.77-1.77    c0.06-0.2,0.14-0.38,0.18-0.4c0.06-0.04,0.36-0.67,0.38-0.81c0.01-0.04,0.19-0.28,0.4-0.54c0.21-0.26,0.41-0.53,0.43-0.6    c0.05-0.13,0.45-0.7,0.67-0.93c0.07-0.08,0.28-0.33,0.47-0.56c0.18-0.23,0.46-0.51,0.61-0.62c0.15-0.11,0.36-0.27,0.46-0.36    c0.1-0.08,0.4-0.27,0.66-0.4c0.52-0.27,1.17-0.88,1.13-1.08c-0.01-0.07-0.1-0.14-0.2-0.15c-0.1-0.01-0.34-0.18-0.54-0.36    c-0.41-0.37-0.55-0.4-0.84-0.17c-0.42,0.34-1.56,0.83-2.38,1.05c-1.28,0.33-2.43,0.31-3.68-0.05c-0.54-0.16-2.04-0.94-2.26-1.18    c-0.16-0.18-0.22-0.33-0.22-0.55c0.01-0.54-0.29-2.68-0.46-3.36c-0.52-2-1.43-3.45-2.77-4.41c-0.55-0.39-2.39-1.31-2.9-1.44    C29.5,0.23,28.66,0.09,28,0c-0.12-0.01-0.62,0.02-1.12,0.08c-0.86,0.1-1.16,0.16-1.46,0.27c-0.07,0.02-0.16,0.04-0.2,0.03    c-0.04-0.01-0.28,0.06-0.54,0.15c-0.25,0.09-0.7,0.23-0.98,0.31c-0.28,0.08-0.56,0.2-0.61,0.26c-0.05,0.06-0.15,0.11-0.22,0.11    c-0.07,0-0.41,0.14-0.75,0.31L21.5,1.83l0.05,0.34c0.3,1.88,1.2,5.15,1.76,6.41c0.28,0.62,0.85,1.47,1.37,2.04    c0.39,0.43,1.55,1.18,2.29,1.48c0.27,0.11,0.57,0.25,0.67,0.32c0.1,0.06,0.26,0.09,0.35,0.06c0.09-0.03,0.17-0.02,0.17,0.02    c0,0.25,2.87,0.41,3.7,0.2c0.19-0.05,0.6-0.15,0.92-0.24c0.32-0.08,0.61-0.14,0.65-0.13c0.04,0.01,0.22-0.09,0.42-0.22    s0.46-0.29,0.6-0.36c0.14-0.07,0.47-0.3,0.76-0.52l0.51-0.4l0.16,0.18c0.09,0.1,0.25,0.23,0.37,0.29    c0.12,0.06,0.32,0.21,0.46,0.35c0.54,0.5,2.58,0.94,3.9,0.84c0.32-0.02,0.77-0.06,1.02-0.08c0.5-0.04,0.57,0.05,0.24,0.34    c-0.17,0.15-0.39,0.48-0.99,1.49c-0.05,0.09-0.12,0.19-0.14,0.21c-0.04,0.04-0.47,0.75-0.96,1.59c-0.21,0.36-0.73,1.42-1.19,2.43    c-0.11,0.25-0.26,0.56-0.31,0.67c-0.06,0.11-0.26,0.64-0.45,1.16s-0.37,1.01-0.41,1.09c-0.11,0.22-0.24,0.54-0.35,0.86    c-0.05,0.16-0.19,0.4-0.29,0.54c-0.19,0.24-0.2,0.24-0.55,0.13c-0.2-0.06-0.52-0.18-0.73-0.28c-1.01-0.46-1.23-0.55-1.58-0.67    c-0.55-0.19-1.11-0.35-1.25-0.36c-0.07-0.01-0.18-0.03-0.25-0.06c-0.67-0.26-1.5-0.37-3.05-0.41c-0.52-0.01-0.94-0.06-0.94-0.09    c0-0.08-0.37-0.07-0.46,0.01c-0.05,0.04-0.31,0.1-0.59,0.13c-0.47,0.05-0.52,0.04-0.57-0.13c-0.05-0.14-0.1-0.17-0.28-0.12    c-0.12,0.03-0.29,0.13-0.37,0.22c-0.09,0.1-0.21,0.14-0.3,0.11c-0.08-0.03-0.39,0.02-0.68,0.12c-0.29,0.09-0.75,0.19-1.02,0.22    c-0.27,0.03-0.52,0.07-0.56,0.09c-0.04,0.02-0.39,0.14-0.79,0.25c-0.82,0.24-2.6,1.09-2.98,1.42c-0.14,0.12-0.35,0.31-0.49,0.42    c-0.13,0.12-0.27,0.21-0.3,0.21c-0.22,0-1.72,1.89-2.06,2.6c-0.06,0.12-0.14,0.26-0.18,0.34c-0.14,0.23-0.43,0.9-0.46,1.09    c-0.02,0.1-0.07,0.23-0.11,0.28c-0.21,0.26-0.41,3.38-0.26,4.12C15.98,32.65,16.12,33.45,16.24,34.18z M54.46,22.83    c0.05,0,0.09,0.04,0.09,0.08c0,0.05-0.02,0.08-0.04,0.08c-0.02,0-0.06-0.03-0.09-0.08C54.4,22.87,54.41,22.83,54.46,22.83z     M54.34,37.83c0.08,0,0.13,0.06,0.13,0.15c0,0.08-0.04,0.22-0.08,0.31c-0.07,0.16-0.08,0.16-0.08-0.01c0-0.1-0.03-0.24-0.05-0.31    C54.22,37.88,54.25,37.83,54.34,37.83z M54.13,40.45c0.06,0.08,0.06,0.14-0.01,0.21c-0.15,0.15-0.23,0.12-0.23-0.11    C53.89,40.33,53.99,40.29,54.13,40.45z M53.39,41.31c-0.05,0.03-0.08,0.01-0.08-0.04c0-0.05,0.04-0.09,0.08-0.09    c0.05,0,0.08,0.02,0.08,0.04C53.47,41.24,53.44,41.28,53.39,41.31z M53.24,21.57c0.07,0,0.17,0.04,0.19,0.08    c0.07,0.11-0.04,0.11-0.21,0C53.11,21.58,53.11,21.57,53.24,21.57z M52.72,38c0.04,0,0.08,0.08,0.08,0.17    c0,0.09-0.04,0.15-0.08,0.12c-0.05-0.03-0.08-0.1-0.08-0.17C52.64,38.05,52.67,38,52.72,38z M52.52,39.25    c0.02,0,0.03,0.14,0.03,0.31c0,0.2-0.02,0.27-0.07,0.21C52.42,39.67,52.45,39.25,52.52,39.25z M52.44,40.59    c0.02,0,0.03,0.16,0.02,0.36l-0.01,0.36l-0.05-0.29C52.34,40.74,52.36,40.59,52.44,40.59z M52.07,22.43    c0.06,0.02,0.13,0.14,0.14,0.27c0.02,0.16-0.01,0.22-0.08,0.19c-0.06-0.02-0.13-0.14-0.14-0.27    C51.96,22.46,51.99,22.41,52.07,22.43z M51.53,41.96c-0.02,0.1-0.03,0.02-0.03-0.19c0-0.21,0.01-0.29,0.03-0.19    C51.55,41.68,51.55,41.86,51.53,41.96z M51.52,22.98l0.06-0.19l0.03,0.2c0.02,0.11,0.01,0.22-0.02,0.25    C51.51,23.33,51.46,23.17,51.52,22.98z M51.3,20.9c0.05,0,0.1,0.03,0.13,0.08c0.03,0.05,0.02,0.08-0.03,0.08    c-0.05,0-0.1-0.03-0.13-0.08C51.23,20.94,51.25,20.9,51.3,20.9z M51.14,23.39c0,0.13-0.03,0.2-0.06,0.16    c-0.09-0.09-0.1-0.57-0.01-0.54c0.05,0.02,0.08,0.05,0.07,0.09C51.14,23.14,51.14,23.26,51.14,23.39z M51.01,20.83    c0.08,0,0.13,0.02,0.11,0.04c-0.03,0.03-0.1,0.03-0.16,0.01C50.89,20.85,50.91,20.83,51.01,20.83z M50.53,40.57    c0.02,0.06,0.02,0.17,0,0.25c-0.02,0.08-0.04,0.04-0.04-0.1C50.49,40.58,50.51,40.51,50.53,40.57z M42.78,13.09    c0.18-0.31,0.34-0.4,0.24-0.13c-0.03,0.08-0.11,0.16-0.17,0.18C42.76,13.18,42.74,13.16,42.78,13.09z M42.53,13.36    c0.03-0.05,0.06-0.08,0.09-0.08c0.02,0,0.04,0.03,0.04,0.08c0,0.05-0.04,0.08-0.09,0.08C42.51,13.44,42.5,13.41,42.53,13.36z     M42.32,13.69c0.05,0,0.08,0.03,0.08,0.08c0,0.05-0.03,0.08-0.08,0.08c-0.05,0-0.08-0.03-0.08-0.08    C42.24,13.73,42.27,13.69,42.32,13.69z M24.31,7.91c-0.02,0-0.06-0.03-0.09-0.08c-0.03-0.05-0.01-0.08,0.04-0.08    c0.05,0,0.09,0.04,0.09,0.08C24.34,7.88,24.33,7.91,24.31,7.91z M26.8,0.45c-0.03-0.05,0-0.08,0.08-0.08    c0.07,0,0.13,0.01,0.13,0.03C27.01,0.5,26.85,0.53,26.8,0.45z M27.73,11.03c-0.03,0.07-0.04,0.05-0.05-0.05    c0-0.08,0.02-0.14,0.04-0.11C27.75,10.9,27.75,10.97,27.73,11.03z M27.75,0.5c-0.24,0.01-0.35-0.04-0.3-0.12    c0.05-0.09,0.51-0.05,0.51,0.04C27.96,0.46,27.87,0.5,27.75,0.5z M28.47,0.57c-0.08-0.03-0.11-0.08-0.09-0.13    c0.06-0.1,0.18-0.09,0.24,0.01c0.03,0.05,0.08,0.07,0.13,0.04c0.04-0.02,0.08,0,0.08,0.05C28.84,0.63,28.67,0.65,28.47,0.57z     M30.42,12.44c-0.05,0-0.08-0.03-0.08-0.08c0-0.05,0.03-0.08,0.08-0.08c0.05,0,0.08,0.03,0.08,0.08    C30.5,12.4,30.47,12.44,30.42,12.44z M31.33,12.35c-0.05,0-0.08-0.03-0.08-0.08c0-0.05,0.03-0.08,0.08-0.08    c0.05,0,0.08,0.03,0.08,0.08C31.42,12.32,31.38,12.35,31.33,12.35z M31.64,6.42c-0.03,0.07-0.04,0.05-0.05-0.05    c0-0.08,0.02-0.14,0.04-0.11C31.66,6.29,31.66,6.36,31.64,6.42z M34.06,5.78c-0.08,0.08-0.24-0.06-0.18-0.15    c0.03-0.05,0.08-0.05,0.14,0.01C34.07,5.69,34.09,5.76,34.06,5.78z M34.33,9.38c-0.05-0.03-0.08-0.08-0.08-0.13    c0-0.05,0.03-0.08,0.08-0.08c0.05,0,0.08,0.05,0.08,0.13C34.41,9.38,34.38,9.41,34.33,9.38z M34.79,10.94    c-0.02-0.04-0.02-0.09,0.01-0.12c0.08-0.08,0.28-0.07,0.28,0.02C35.08,10.94,34.84,11.02,34.79,10.94z M39.39,11.99    c-0.07-0.03-0.05-0.05,0.05-0.05c0.08,0,0.13,0.02,0.11,0.04C39.52,12.01,39.45,12.02,39.39,11.99z M28.8,46.46    c-0.02,0-0.06-0.03-0.09-0.08c-0.03-0.05-0.01-0.08,0.04-0.08c0.05,0,0.09,0.04,0.09,0.08C28.84,46.43,28.82,46.46,28.8,46.46z     M29.24,45.2c-0.08-0.05-0.16-0.15-0.16-0.21c0-0.11,0.03-0.1,0.2,0.03c0.11,0.08,0.21,0.18,0.21,0.21    C29.5,45.31,29.44,45.3,29.24,45.2z M34,48.6c-0.05,0.03-0.08,0.01-0.08-0.04c0-0.05,0.04-0.09,0.08-0.09    c0.05,0,0.08,0.01,0.08,0.04S34.05,48.57,34,48.6z M34.25,46.55c-0.05,0-0.08-0.03-0.08-0.08c0-0.05,0.03-0.08,0.08-0.08    c0.05,0,0.08,0.03,0.08,0.08C34.33,46.51,34.3,46.55,34.25,46.55z M35.91,49.31c-0.05,0-0.08-0.03-0.08-0.08    c0-0.05,0.03-0.08,0.08-0.08c0.05,0,0.08,0.03,0.08,0.08C35.99,49.28,35.96,49.31,35.91,49.31z M39.8,45.72    c-0.03,0.07-0.04,0.05-0.05-0.05c0-0.08,0.02-0.14,0.04-0.11C39.82,45.59,39.82,45.66,39.8,45.72z M40.49,47.3    c-0.05,0-0.08-0.03-0.08-0.08c0-0.05,0.03-0.08,0.08-0.08c0.05,0,0.08,0.03,0.08,0.08C40.57,47.27,40.54,47.3,40.49,47.3z     M42.2,46.55c-0.02,0-0.06-0.03-0.09-0.08c-0.03-0.05-0.01-0.08,0.04-0.08c0.05,0,0.09,0.04,0.09,0.08    C42.24,46.51,42.22,46.55,42.2,46.55z M42.91,47.19c-0.15,0.07-0.3,0.1-0.32,0.08c-0.05-0.05,0.3-0.21,0.47-0.2    C43.13,47.06,43.06,47.12,42.91,47.19z M43.06,38.92c-0.05,0-0.07-0.04-0.04-0.08c0.03-0.05,0.06-0.08,0.09-0.08    c0.02,0,0.04,0.03,0.04,0.08C43.15,38.88,43.11,38.92,43.06,38.92z M47.31,30.16c-0.05-0.03-0.08-0.08-0.08-0.13    c0-0.05,0.03-0.08,0.08-0.08c0.05,0,0.08,0.05,0.08,0.13C47.39,30.16,47.36,30.19,47.31,30.16z M47.93,44.19    c-0.04,0.04-0.17,0.1-0.28,0.13l-0.21,0.05l0.21-0.13C47.88,44.11,48.06,44.07,47.93,44.19z M48.79,43.8    c-0.02,0.06-0.11,0.12-0.19,0.14c-0.13,0.03-0.14,0.01-0.04-0.1C48.69,43.67,48.84,43.65,48.79,43.8z M50.06,42.27    c0.05,0,0.08,0.05,0.08,0.13c0,0.08-0.03,0.11-0.08,0.08c-0.05-0.03-0.08-0.08-0.08-0.13C49.97,42.3,50.01,42.27,50.06,42.27z     M49.8,37.58c0.05,0,0.09,0.04,0.09,0.08c0,0.05-0.02,0.08-0.04,0.08c-0.02,0-0.06-0.03-0.09-0.08    C49.74,37.61,49.75,37.58,49.8,37.58z M49.8,41.43c0.02,0.1-0.01,0.23-0.06,0.28c-0.07,0.07-0.09,0.03-0.09-0.12    C49.64,41.32,49.76,41.19,49.8,41.43z M49.72,42.02c0.04,0.12,0.03,0.27-0.01,0.35c-0.04,0.08-0.07,0.3-0.07,0.48    c0,0.2-0.04,0.34-0.09,0.34c-0.09,0-0.07-0.6,0.04-1.13C49.65,41.8,49.65,41.8,49.72,42.02z M49.4,20.32    c0.08,0,0.15,0.03,0.15,0.07s-0.05,0.14-0.11,0.22c-0.11,0.15-0.11,0.14-0.15-0.07C49.26,20.36,49.28,20.32,49.4,20.32z     M49.03,21.97c0.02,0.06,0.02,0.15,0,0.21c-0.02,0.06-0.04,0.01-0.04-0.1S49.01,21.91,49.03,21.97z M48.79,20.47    c0.02,0.06-0.04,0.1-0.14,0.1c-0.1,0-0.17-0.06-0.17-0.13C48.48,20.28,48.74,20.31,48.79,20.47z M46.8,19.95    c0.23-0.06,0.27-0.06,0.26,0.01c0,0.04-0.06,0.14-0.13,0.23c-0.11,0.14-0.14,0.15-0.2,0.04C46.61,20.05,46.63,19.99,46.8,19.95z     M40.01,26.03c0.01-0.03,0.04-0.3,0.07-0.58c0.04-0.38,0.07-0.51,0.13-0.51c0.04,0,0.1,0.04,0.12,0.08    c0.03,0.05,0.17,0.08,0.48,0.07c1.33-0.01,1.64,0,1.73,0.07c0.06,0.04,0.14,0.05,0.19,0.03c0.05-0.02,0.43-0.02,0.86,0.01    c1.14,0.08,1.58,0.1,1.66,0.06c0.04-0.02,0.17-0.03,0.29-0.01c0.11,0.01,0.43,0.02,0.7,0c0.27-0.01,0.82-0.01,1.22,0.01    c0.4,0.02,0.74,0.02,0.75,0.01c0.3-0.25,1.05,1.18,0.98,1.88c-0.02,0.21-0.27,0.4-0.37,0.3c-0.05-0.05-0.1-0.06-0.13-0.04    c-0.03,0.02-0.07,0-0.1-0.05c-0.04-0.07-0.08-0.08-0.2-0.03c-0.15,0.06-0.35,0.08-0.94,0.09c-0.16,0-0.38,0.03-0.48,0.06    c-0.1,0.03-0.33,0.05-0.52,0.05c-0.35-0.01-0.89,0.23-0.87,0.38c0,0.04-0.03,0.13-0.06,0.19c-0.05,0.08-0.05,0.16-0.01,0.28    c0.05,0.13,0.04,0.18-0.02,0.21c-0.06,0.03-0.06,0.12-0.02,0.37c0.03,0.18,0.04,0.34,0.02,0.36c-0.02,0.02-0.01,0.21,0.02,0.43    c0.03,0.22,0.05,0.64,0.04,0.93c-0.01,0.29,0.01,0.56,0.04,0.61c0.03,0.05,0.03,0.17,0,0.28c-0.03,0.11-0.04,0.26-0.01,0.34    c0.05,0.13,0.07,0.45,0.07,1.18c0,0.16,0.01,0.45,0.02,0.66c0.01,0.21,0.01,0.5-0.01,0.65c-0.02,0.14-0.01,0.3,0.02,0.35    c0.07,0.12,0.01,0.49-0.1,0.55c-0.06,0.03-0.07,0.07-0.03,0.1c0.06,0.05,0.15,0.83,0.12,0.95c-0.01,0.03,0,0.09,0.01,0.15    c0.06,0.21,0.07,0.76,0.02,1.24c-0.03,0.29-0.03,0.52,0,0.52c0.03,0,0.05,0.07,0.04,0.15c-0.01,0.08,0.01,0.29,0.05,0.46    c0.06,0.28,0.05,0.32-0.04,0.36c-0.09,0.04-0.09,0.05,0.01,0.14c0.07,0.06,0.1,0.19,0.09,0.37c-0.02,0.45-0.01,0.77,0.02,0.95    c0.02,0.12,0.01,0.17-0.04,0.17c-0.04,0-0.07,0.02-0.07,0.06c0,0.03,0.05,0.07,0.12,0.07c0.1,0.01,0.12,0.05,0.11,0.22    c-0.01,0.11-0.01,0.26,0,0.33c0.01,0.07,0.04,0.51,0.06,0.98c0.03,0.47,0.05,0.91,0.06,0.98c0,0.07,0.03,0.23,0.06,0.37    c0.03,0.14,0.04,0.26,0.01,0.29c-0.02,0.03,0,0.1,0.05,0.16c0.12,0.15,0.06,0.31-0.15,0.39c-0.1,0.04-0.22,0.14-0.26,0.21    c-0.09,0.15-0.5,0.27-0.71,0.19c-0.07-0.02-0.19-0.01-0.29,0.03c-0.1,0.04-0.22,0.05-0.29,0.03c-0.9-0.26-0.89-0.26-1.02-0.54    c-0.09-0.19-0.12-0.39-0.11-0.72c0.01-0.26,0.04-0.45,0.08-0.45c0.03,0,0.02-0.05-0.03-0.11c-0.05-0.07-0.09-0.31-0.08-0.59    c0-0.26-0.01-0.57-0.03-0.7c-0.02-0.12-0.03-0.41-0.03-0.63c0-0.23-0.01-0.59-0.02-0.82c-0.02-0.23-0.02-0.59-0.02-0.81    c0.01-0.21-0.01-0.44-0.05-0.49c-0.03-0.05-0.06-0.29-0.05-0.52c0.01-0.24,0-0.65-0.01-0.93c-0.01-0.28-0.02-0.63,0-0.79    c0.01-0.16,0-0.32-0.02-0.36c-0.03-0.04-0.03-0.17-0.01-0.29c0.02-0.12,0.02-0.46,0.01-0.78c-0.01-0.32-0.01-0.65,0-0.76    c0.05-0.37,0.05-0.88,0.01-0.95c-0.09-0.14-0.12-2.76-0.04-4.28c0.09-1.9,0.1-1.81-0.19-1.78c-0.39,0.04-0.53,0.04-0.97,0.03    c-0.23-0.01-0.45,0-0.47,0.01c-0.03,0.01-0.22,0-0.43-0.03c-0.4-0.05-0.57-0.15-0.55-0.32c0.01-0.06-0.03-0.09-0.11-0.08    c-0.19,0.03-0.29-0.12-0.3-0.45c-0.02-0.45-0.04-0.75-0.07-0.86C40.01,26.14,40,26.06,40.01,26.03z M45.81,30.54    c0,0.05-0.02,0.08-0.04,0.08c-0.02,0-0.06-0.03-0.09-0.08c-0.03-0.05-0.01-0.08,0.04-0.08C45.78,30.46,45.81,30.49,45.81,30.54z     M33.46,34.21c0.01-0.09,0.05-0.31,0.1-0.5c0.04-0.18,0.11-0.49,0.15-0.68c0.04-0.19,0.08-0.38,0.1-0.43    c0.02-0.05,0.07-0.33,0.12-0.62c0.13-0.81,0.32-1.73,0.4-1.89c0.04-0.08,0.06-0.15,0.04-0.17c-0.03-0.03,0.13-0.56,0.43-1.42    c0.09-0.27,0.2-0.6,0.25-0.74c0.04-0.14,0.12-0.34,0.19-0.46c0.06-0.11,0.25-0.47,0.42-0.78c0.17-0.32,0.41-0.71,0.54-0.86    c0.13-0.16,0.26-0.33,0.29-0.39c0.03-0.06,0.11-0.1,0.2-0.09c0.13,0.01,1.12,0.52,1.56,0.81c0.09,0.06,0.24,0.11,0.34,0.12    c0.12,0.01,0.19,0.06,0.24,0.16c0.03,0.08,0.13,0.22,0.23,0.31c0.09,0.09,0.16,0.21,0.16,0.26c-0.01,0.06,0.07,0.25,0.18,0.44    c0.13,0.23,0.23,0.56,0.31,1.07c0.21,1.24,0.28,1.81,0.23,1.96c-0.03,0.08-0.02,0.14,0.01,0.15c0.08,0.01,0.14,0.32,0.15,0.8    c0,0.11,0.01,0.26,0.03,0.35c0.09,0.59,0.13,1.56,0.09,1.89c-0.03,0.22-0.03,0.41,0,0.43c0.03,0.02,0.01,0.09-0.03,0.15    c-0.06,0.09-0.06,0.16,0,0.27c0.05,0.09,0.07,0.38,0.05,0.77c-0.01,0.35-0.01,0.7,0.02,0.79c0.02,0.09,0.04,0.31,0.02,0.49    c-0.01,0.18,0,0.37,0.02,0.41c0.02,0.04,0.03,0.24,0.02,0.42c-0.05,0.95-0.07,1.67-0.05,1.76c0.02,0.1,0.07,1.55,0.07,2.12    c0,0.18,0,0.38,0,0.47c0,0.09,0.02,0.2,0.05,0.25c0.03,0.05,0.05,0.17,0.05,0.26c0,0.09,0.02,0.29,0.05,0.44    c0.03,0.19,0.02,0.3-0.03,0.34c-0.05,0.04-0.05,0.09-0.01,0.15c0.06,0.09,0.16,0.86,0.16,1.36c0,0.16,0.03,0.32,0.06,0.36    c0.03,0.05,0.04,0.11,0.01,0.14c-0.03,0.03-0.01,0.15,0.04,0.25c0.05,0.11,0.07,0.23,0.05,0.28c-0.05,0.11-0.5,0.13-0.86,0.03    c-0.29-0.08-0.83-0.39-0.93-0.55c-0.08-0.12-0.66-4.25-0.67-4.81c-0.01-0.38-0.02-0.49-0.09-1.4c-0.03-0.39-0.05-1.06-0.05-1.49    c0-0.97-0.03-2.41-0.06-2.71c-0.02-0.2-0.05-0.23-0.24-0.26c-0.14-0.03-0.24-0.01-0.29,0.05c-0.04,0.05-0.22,0.11-0.39,0.13    c-0.83,0.1-1.23,0.2-1.28,0.33c-0.08,0.18-0.17,0.7-0.2,1.13c-0.02,0.24-0.08,0.54-0.13,0.68c-0.05,0.14-0.11,0.37-0.14,0.53    c-0.02,0.15-0.08,0.46-0.13,0.68c-0.08,0.4-0.1,0.56-0.16,1.31c-0.03,0.38-0.19,1.8-0.3,2.62c-0.03,0.19-0.07,0.38-0.1,0.42    c-0.03,0.04-0.03,0.13,0,0.2c0.03,0.08,0.03,0.21-0.02,0.37c-0.08,0.24-0.09,0.39-0.06,0.89c0.01,0.16,0.01,0.35,0,0.44    c-0.08,0.61-0.08,0.77-0.03,0.94c0.07,0.24-0.01,0.35-0.29,0.39c-0.1,0.01-0.19,0.06-0.19,0.11c-0.01,0.13-0.26,0.09-0.34-0.05    c-0.07-0.11-0.08-0.11-0.21-0.02c-0.12,0.09-0.18,0.09-0.55,0c-0.7-0.18-0.83-0.36-0.86-1.22c-0.02-0.68,0.2-3.37,0.35-4.37    c0.12-0.78,0.28-1.75,0.36-2.3c0.03-0.22,0.15-0.85,0.25-1.39C33.35,34.97,33.44,34.44,33.46,34.21z M31.46,24    c0.03-0.05,0.08-0.08,0.13-0.08c0.05,0,0.06,0.03,0.03,0.08c-0.03,0.05-0.08,0.08-0.13,0.08C31.44,24.09,31.43,24.05,31.46,24z     M31.28,21.74c0.17,0,0.17,0.01,0.01,0.12c-0.09,0.07-0.19,0.1-0.23,0.08C30.95,21.87,31.09,21.74,31.28,21.74z M29.31,21.99    c0.07,0,0.11,0.05,0.09,0.1c-0.05,0.13-0.3,0.29-0.36,0.22C28.96,22.23,29.16,21.99,29.31,21.99z M25.82,31.36    c0.02,0.06,0.02,0.15,0,0.21c-0.02,0.06-0.04,0.01-0.04-0.1S25.79,31.3,25.82,31.36z M25.55,23.67c0.03-0.05,0.06-0.08,0.09-0.08    c0.02,0,0.04,0.03,0.04,0.08c0,0.05-0.04,0.08-0.09,0.08C25.54,23.75,25.52,23.72,25.55,23.67z M25.42,32.09    c0.04,0.03,0.08,0.15,0.08,0.26c0,0.11-0.04,0.21-0.08,0.21c-0.05,0-0.08-0.11-0.08-0.26C25.34,32.14,25.38,32.06,25.42,32.09z     M25.27,36.36c0.07-0.28,0.3-0.94,0.38-1.08c0.04-0.07,0.14-0.29,0.24-0.49c0.21-0.45,0.64-1.01,1.25-1.61l0.45-0.44l-0.32-0.36    c-0.49-0.57-0.76-1.1-0.95-1.87c-0.32-1.34-0.25-1.87,0.36-2.95c0.12-0.21,0.22-0.42,0.22-0.46c0-0.05,0.11-0.17,0.23-0.28    c0.12-0.11,0.35-0.33,0.52-0.49c0.3-0.31,0.97-0.76,1.07-0.72c0.03,0.01,0.19-0.03,0.36-0.09c0.43-0.14,1.12-0.2,1.48-0.11    c0.18,0.04,0.32,0.05,0.34,0.01c0.02-0.03,0.08-0.04,0.12-0.02c0.04,0.02,0.18-0.05,0.31-0.16l0.23-0.2l0.13,0.16    c0.07,0.09,0.12,0.19,0.12,0.23c0,0.03,0.03,0.07,0.08,0.07c0.05,0,0.14,0.08,0.21,0.18c0.07,0.09,0.16,0.17,0.2,0.18    c0.11,0.01,0.66,0.63,0.65,0.73c0,0.05-0.04,0.08-0.08,0.08c-0.04,0-0.05,0.04-0.04,0.09c0.02,0.05,0.04,0.14,0.06,0.19    c0.02,0.05,0,0.09-0.04,0.09c-0.04,0-0.14,0.05-0.22,0.11c-0.08,0.06-0.23,0.12-0.32,0.13c-0.09,0.01-0.21,0.06-0.25,0.1    c-0.04,0.05-0.11,0.08-0.15,0.07c-0.04,0-0.16,0.07-0.28,0.17c-0.11,0.1-0.31,0.22-0.45,0.29c-0.14,0.06-0.25,0.13-0.25,0.16    c0,0.02-0.16,0.2-0.34,0.38c-0.18,0.18-0.36,0.42-0.39,0.52c-0.03,0.1-0.15,0.29-0.27,0.41c-0.11,0.13-0.21,0.27-0.21,0.31    c0,0.04-0.04,0.08-0.07,0.08c-0.03,0-0.07,0.06-0.07,0.13c-0.01,0.08-0.09,0.29-0.18,0.47c-0.42,0.85-0.28,1.66,0.36,1.98    c0.03,0.02,0.15,0.12,0.27,0.23c0.12,0.11,0.23,0.2,0.25,0.2c0.09,0.01,0.88,1.02,0.87,1.11c0,0.05,0.04,0.13,0.11,0.17    c0.13,0.09,0.13,0.31,0,0.52c-0.12,0.18-0.49,0.5-0.58,0.49c-0.04,0-0.07,0.02-0.07,0.04c0,0.03-0.15,0.14-0.34,0.26    c-0.18,0.11-0.47,0.37-0.63,0.57c-0.4,0.49-0.4,0.49-0.9,1.21c-0.18,0.26-0.23,0.37-0.24,0.49c-0.01,0.08-0.07,0.19-0.13,0.25    c-0.11,0.11-0.14,0.26-0.34,2l-0.07,0.62l0.22,0.52c0.12,0.28,0.2,0.55,0.18,0.59c-0.02,0.04,0.04,0.16,0.13,0.26    c0.09,0.11,0.16,0.23,0.16,0.27c0,0.04,0.03,0.11,0.08,0.16c0.05,0.04,0.07,0.12,0.05,0.16c-0.06,0.13,0.69,0.75,0.97,0.79    c0.12,0.02,0.29,0.08,0.37,0.14c0.08,0.06,0.24,0.16,0.37,0.21c0.13,0.06,0.22,0.12,0.22,0.15c0,0.03,0.06,0.06,0.14,0.06    c0.22,0.02,0.3,0.18,0.16,0.32c-0.09,0.09-0.16,0.1-0.29,0.06c-0.13-0.04-0.18-0.03-0.18,0.04c-0.01,0.11-0.14,0.16-0.34,0.14    c-0.07-0.01-0.18,0.04-0.23,0.11c-0.1,0.13-0.28,0.14-0.38,0.02c-0.05-0.06-0.07-0.06-0.07-0.01c-0.01,0.1-0.78,0.03-1.17-0.1    c-0.44-0.15-1.2-0.62-1.54-0.95c-0.37-0.35-0.82-1.08-1.1-1.75c-0.3-0.73-0.59-1.96-0.62-2.57c0-0.09-0.02-0.34-0.04-0.57    C25,38.21,25.14,36.86,25.27,36.36z M25.08,31.08c0.01,0.39-0.01,0.7-0.06,0.75c-0.06,0.06-0.09-0.1-0.09-0.51    C24.93,30.46,25.05,30.27,25.08,31.08z M24.61,27.23c0.11-0.25,0.24-0.29,0.18-0.05c-0.02,0.09-0.1,0.21-0.16,0.27    C24.49,27.56,24.48,27.51,24.61,27.23z M24.06,30.82c0.03,0.03,0.03,0.1,0.01,0.16c-0.03,0.07-0.04,0.05-0.05-0.05    C24.01,30.84,24.03,30.79,24.06,30.82z M23.63,33.14c0.02,0,0.06,0.03,0.09,0.08c0.03,0.05,0.01,0.08-0.04,0.08    c-0.05,0-0.09-0.04-0.09-0.08C23.59,33.17,23.61,33.14,23.63,33.14z M22.88,40.68c0.02,0,0.05,0.06,0.08,0.13    c0.02,0.07,0.01,0.13-0.03,0.13c-0.04,0-0.08-0.06-0.08-0.13C22.85,40.74,22.86,40.68,22.88,40.68z M22.18,30.37    c0.04,0,0.08,0.06,0.08,0.13c0,0.07-0.02,0.13-0.03,0.13c-0.02,0-0.05-0.06-0.08-0.13C22.13,30.43,22.14,30.37,22.18,30.37z     M22.15,32.03c0.02,0.06,0.02,0.15,0,0.21c-0.02,0.06-0.04,0.01-0.04-0.1C22.11,32.01,22.13,31.97,22.15,32.03z M21.7,33.2    c0.08,0.08,0.08,0.13,0,0.2c-0.08,0.08-0.1,0.06-0.1-0.1C21.6,33.15,21.62,33.12,21.7,33.2z M21.18,41.71l0,0.18l-0.17-0.2    c-0.21-0.25-0.2-0.37,0.01-0.26C21.11,41.48,21.18,41.61,21.18,41.71z M20.82,32.52c0.1-0.17,0.17,0.11,0.13,0.55    c-0.02,0.26-0.07,0.48-0.11,0.48C20.78,33.56,20.76,32.63,20.82,32.52z M20.73,36.97c0.07-0.11,0.12-0.07,0.12,0.13    c0,0.14-0.02,0.16-0.08,0.06C20.73,37.1,20.71,37.01,20.73,36.97z M20.1,40.05c0.04,0.03,0.08,0.11,0.08,0.18    c0,0.07-0.04,0.1-0.08,0.08c-0.04-0.03-0.08-0.11-0.08-0.18C20.02,40.06,20.05,40.02,20.1,40.05z M19.85,32.3    c0.05,0,0.08,0.03,0.08,0.08c0,0.05-0.03,0.08-0.08,0.08c-0.05,0-0.08-0.03-0.08-0.08C19.77,32.33,19.8,32.3,19.85,32.3z     M19.4,24.48c0.03-0.03,0.07-0.04,0.1-0.01c0.03,0.02,0,0.08-0.05,0.14c-0.06,0.06-0.1,0.06-0.1,0.01    C19.35,24.57,19.37,24.51,19.4,24.48z M18.98,36.46c0.07-0.07,0.2,0.01,0.2,0.12c0,0.04-0.06,0.08-0.12,0.08    C18.93,36.66,18.89,36.56,18.98,36.46z M18.91,34.46c0.02,0.06,0.02,0.17,0,0.25c-0.02,0.08-0.04,0.04-0.04-0.1    C18.87,34.46,18.89,34.4,18.91,34.46z M18.81,38.66c0.07,0.06,0.12,0.17,0.12,0.24c0,0.12-0.02,0.11-0.12-0.02    C18.65,38.68,18.65,38.53,18.81,38.66z M18.23,37.49c0.06,0,0.12,0.06,0.12,0.13c0,0.07-0.04,0.13-0.08,0.13s-0.1-0.06-0.12-0.13    C18.13,37.54,18.16,37.49,18.23,37.49z M16.58,30.53c0.06-0.27,0.06-0.27,0.11-0.07c0.03,0.12,0.03,0.29,0.02,0.39    c-0.04,0.2-0.18,0.26-0.18,0.08C16.52,30.86,16.55,30.68,16.58,30.53z M36.5,32.63c0.22,0.02,0.97-0.02,1.33-0.06    c0.12-0.01,0.15-0.06,0.17-0.25c0.04-0.45-0.13-2.26-0.22-2.38c-0.05-0.06-0.13-0.41-0.17-0.77c-0.11-0.85-0.14-0.92-0.26-0.62    c-0.05,0.14-0.12,0.38-0.16,0.55c-0.03,0.17-0.09,0.35-0.13,0.41c-0.04,0.06-0.07,0.17-0.08,0.25c-0.01,0.08-0.04,0.17-0.08,0.2    c-0.04,0.03-0.12,0.4-0.2,0.83c-0.07,0.43-0.2,0.97-0.27,1.2C36.23,32.64,36.22,32.61,36.5,32.63z"></path>
        </g>
    </g>
</svg>