<svg width="150"
    xmlns="http://www.w3.org/2000/svg"
    xmlns:xlink="http://www.w3.org/1999/xlink" id="OBJECTS" x="0px" y="0px" viewBox="0 0 106.04 77" style="enable-background:new 0 0 106.04 77;" xml:space="preserve">
    <g>
        <g>
            <path fill="#ccc" d="M105.63,58.82c-0.3-0.08-0.64,0.08-0.69,0.38c-0.55,2.46-4.37,14.12-6.13,14.12c-0.99,0-1.07-8.9-0.44-13.62    c3.63-1.67,7.01-9.37,7.15-12.84c0.08-1.99-0.8-4.01-2.64-4.01c-5.44,0-7.92,10.64-8.21,19.75c-2.3,4.54-5.5,7.75-6.7,7.75    c-0.52,0,1.98-10.7,2.8-13.13c0.3-0.76-2.94-1.37-3.22-0.33c-0.16,0.46-0.36,1.01-0.58,1.58c-0.66-1.42-1.9-2.46-4.21-2.32    c-3.15,0.18-4.98,4.5-4.93,7.93c-1.41,3.6-3.09,6.36-4.55,6.36c-1.13,0,0.47-7.78,1.73-12.7c0.22-0.74-0.28-1.06-0.94-1.06    c-1.92,0-4.34,1.45-6.71,1.61c1.51-3.93,2.09-8.19-1.07-8.19h-0.03c-2.14,0-3.38,2.59-3.38,4.91c0,2.13,1.01,3.97,2.95,4.32    c-0.42,1.82-1.14,4.78-1.65,6.25c-0.49,1.45-1.51,4.15-2.09,4.15c-1.07,0-0.11-6.96,0.63-10.24c0.38-1.58-3.08-1.94-3.46-0.27    c-1.46,4.12-2.56,7.54-3.8,7.54c-1.13,0,0.03-5.79,0.69-7.81c0.55-1.45-2.8-1.78-3.22-0.38c0,0.04-0.61,2.07-0.93,4.34    c-1.49,5.33-3.88,11.86-5.24,11.86c-0.99,0-0.74-4.89-0.38-8.3c0.36-3.82,1.6-11.63,2.64-17.75c3.33,0.55,6.74,1.06,9.46,1.06    c4.73,0,8.28-1.2,9.27-5.3c0.08-0.3-0.08-0.58-0.38-0.66c-0.3-0.08-0.58,0.11-0.66,0.41c-0.69,2.76-2.86,4.42-6.85,4.42    c-3.82,0-7.35-0.54-10.62-1.09c0.11-0.57,0.19-1.14,0.3-1.69c0.19-1.47-3.19-1.28-3.33-0.08c-0.08,0.38-0.14,0.79-0.22,1.23    c-2.26-0.38-4.37-0.66-6.35-0.66c-2.23,0-4.1,0.44-4.57,2.16c-0.08,0.3,0.11,0.6,0.41,0.68c0.36,0.06,0.58-0.08,0.66-0.41    c0.3-1.15,1.9-1.34,3.46-1.34c1.65,0.03,3.8,0.33,6.16,0.71c-0.58,3.35-1.3,7.98-1.86,11.9c-2.22,5.83-6.41,10.3-7.82,10.3    c-0.52,0,1.98-10.7,2.8-13.13c0.3-0.76-2.94-1.37-3.22-0.33c-0.16,0.46-0.36,1.01-0.58,1.58c-0.66-1.42-1.9-2.46-4.21-2.32    c-3.3,0.19-5.14,4.9-4.91,8.38c-1.52,5.03-3.49,10.48-5.11,10.05c-1.68-0.33-0.11-8.71,0.41-11.8c1.65-9.07,2.45-16.88-2.86-16.63    c-2.86,0-4.78,3-7.92,11.82c1.1-7.54,0.19-14.72-6.24-14.72c-7.43,0-3.19,14.2-1.95,16.41c0.14,0.25,0.49,0.38,0.74,0.19    c0.25-0.19,0.33-0.49,0.19-0.74c-1.87-3.33-3.8-14.45,0.06-14.45c3.8,0,4.62,5.46,4.12,10.95c-0.41,4.92-1.26,8.03-1.82,11.63    c-0.19,1.28,3.14,1.2,3.3,0.22c0.05-0.38,2.47-8.63,3-10.16c1.02-2.92,3.63-9.86,5.67-9.86c2.7,0,1.62,7.51,0.44,14.36    c-1.1,6.58-2.61,14.88,1.32,14.88c3.43,0,5.3-4.28,7.12-10.11c0.44,0.99,1.18,1.65,2.27,1.65c2.34,0,3.99-2.16,5.09-4.07    c-0.74,3.99-0.96,7.92,1.6,7.92c2.4,0,5.77-4.19,7.99-8.26c-0.13,1.01-0.23,1.89-0.29,2.55C42.63,71.9,42.58,77,45.55,77    c2.52,0,4.82-4.95,6.45-9.97c0.26,1.18,0.88,2,2.09,2c1.54,0,3-1.45,4.38-4.34c-0.52,3.6-0.36,7.62,2.17,7.62    c2.06,0,3.55-3.3,4.62-6.42c0.58-1.66,1.29-4.83,1.7-6.47c0-0.02,0.01-0.03,0.01-0.05c1.57-0.06,3.08-0.4,4.51-0.91    c-1.38,5.16-3.02,13.63,1.32,13.63c2.05,0,3.88-2.53,5.38-5.9c0.41,1.22,1.2,2.05,2.42,2.05c2.34,0,3.99-2.16,5.09-4.07    c-0.74,3.99-0.96,7.92,1.6,7.92c2.18,0,5.16-3.46,7.36-7.15c0.06,5.78,1.06,10.42,2.76,10.42c3.55,0,6.52-8.49,8.61-15.89    C106.1,59.17,105.93,58.9,105.63,58.82z M103.68,44.7c0.77-0.14,0.8,1.09,0.74,2.1c-0.16,2.81-3,10.13-5.86,11.58    C99.06,55.14,101.53,45.09,103.68,44.7z M30.25,66.57c-1.52,0-0.33-9.06,1.59-9.06c1.21,0,2.23,1.2,2.67,2.46    C33.2,63.11,31.36,66.57,30.25,66.57z M66.17,58.27C64.69,58.08,64,56.61,64,55c0-1.75,0.85-3.82,2.28-3.82h0.03    C68.46,51.18,67.44,55.3,66.17,58.27z M82.12,66.57c-1.52,0-0.33-9.06,1.59-9.06c1.21,0,2.23,1.2,2.67,2.46    C85.06,63.11,83.22,66.57,82.12,66.57z M36.29,34.16c4.33-0.74,8.61-1.74,12.95-2.48c1.16-0.2,2.33-0.31,3.48-0.34    c1.87-0.45,3.58-0.87,5.13-1.25c0,0.18,0.05,0.36,0.17,0.56c0.04,0.06,0.08,0.11,0.11,0.17c0.92,1.48,1.96,2.87,3.04,4.23    c1.21,1.54,2.59,2.9,4.25,3.8c1.46,0.88,2.94,1.42,4.55,1.63c1.12,0.15,2.24,0.29,3.36,0.44c0.83,0.11,1.66,0.08,2.49-0.02    c0.35-0.04,0.69-0.09,1.04-0.13c1.58-0.15,3.1-0.55,4.58-1.13c0.35-0.13,0.69-0.28,1.03-0.43c0.17-0.08,0.31-0.2,0.3-0.42    c-0.01-0.21-0.12-0.34-0.3-0.42c-0.13-0.06-0.26-0.1-0.38-0.16c-0.19-0.08-0.39-0.15-0.57-0.24c-0.92-0.48-1.79-1.05-2.57-1.72    c-1.33-1.12-2.64-2.27-3.89-3.47c-1.22-1.17-2.47-2.32-3.79-3.38c-0.43-0.34-0.87-0.69-1.35-0.94c-1.02-0.54-2.08-0.98-3.17-1.35    c-0.41-0.14-0.83-0.23-1.25-0.27c1.48-0.7,2.97-1.39,4.43-2.12c0.1-0.02,0.21-0.05,0.32-0.1c0.07-0.03,0.13-0.07,0.19-0.1    c1.66-0.8,3.24-1.74,4.8-2.71c1.75-1.09,3.35-2.37,4.48-4c1.09-1.42,1.82-2.89,2.22-4.51c0.28-1.14,0.56-2.28,0.83-3.41    c0.2-0.84,0.27-1.7,0.26-2.56C83.01,6.98,83,6.62,83,6.27c0.01-1.64-0.24-3.24-0.68-4.82c-0.1-0.37-0.22-0.73-0.35-1.1    C81.91,0.16,81.79,0.01,81.56,0c-0.23-0.01-0.37,0.1-0.47,0.27c-0.07,0.12-0.14,0.25-0.21,0.38c-0.1,0.19-0.2,0.39-0.32,0.56    c-0.61,0.9-1.31,1.73-2.09,2.48c-1.33,1.26-2.69,2.49-4.09,3.66c-1.38,1.14-2.72,2.31-3.98,3.57c-0.41,0.41-0.82,0.83-1.14,1.3    c-0.68,0.99-1.27,2.04-1.77,3.13c-0.39,0.84-0.59,1.72-0.54,2.65c0.06,1.01,0.21,2,0.58,2.95c0.21,0.55,0.42,1.09,0.64,1.63    c-0.06-0.04-0.14-0.07-0.2-0.11c-1.48,1.89-3.41,3.23-5.76,4.13c-3.57,1.36-7.15,2.66-10.94,3.3c-0.23,0.04-0.47,0.06-0.77,0.08    c0.64-0.47,1.27-0.95,1.9-1.45c1.59-1.25,3.02-2.67,3.98-4.37c0.93-1.49,1.53-3,1.79-4.62c0.19-1.13,0.37-2.27,0.55-3.4    c0.13-0.84,0.14-1.68,0.06-2.51c-0.03-0.35-0.07-0.69-0.09-1.04c-0.1-1.59-0.46-3.12-0.99-4.6c-0.12-0.35-0.26-0.69-0.41-1.03    c-0.07-0.17-0.19-0.31-0.42-0.29c-0.21,0.01-0.34,0.13-0.43,0.31c-0.06,0.13-0.11,0.26-0.17,0.39C56.18,7.56,56.1,7.76,56,7.95    c-0.52,0.94-1.12,1.82-1.82,2.63c-1.18,1.36-2.38,2.71-3.64,4c-1.23,1.26-2.43,2.54-3.54,3.9c-0.36,0.44-0.72,0.89-1,1.38    c-0.57,1.04-1.06,2.12-1.46,3.23c-0.31,0.85-0.44,1.74-0.33,2.63c0.12,0.97,0.34,1.92,0.76,2.8c0.24,0.52,0.49,1.04,0.74,1.55    c0.1,0.21,0.22,0.42,0.33,0.63c-1.12,0.2-2.27,0.38-3.38,0.54c-0.53,0.22-1.09,0.38-1.69,0.5c-3.64,0.7-7.28,1.4-11.02,1.02    c-0.45-0.05-0.92,0-1.95,0.01c0.27,1.01,0.43,1.6,0.6,2.21C31.34,35.37,33.81,34.58,36.29,34.16z M81.16,6.63    c0.02-0.03,0.05-0.06,0.07-0.08c0,0.04,0.02,0.09,0.01,0.1c-0.02,0.02-0.06,0.02-0.1,0.03C81.15,6.66,81.15,6.64,81.16,6.63z     M81.14,6.7c0.06,0.05,0.16,0.1,0.16,0.16c0.02,0.24,0.02,0.48,0,0.71c-0.07,0.78-0.16,1.57-0.22,2.35    c-0.11,1.55-0.64,2.98-1.31,4.36c-0.58,1.21-1.31,2.33-2.1,3.42c-0.34,0.47-0.72,0.89-1.18,1.26c-1.12,0.92-2.35,1.68-3.65,2.32    c-0.25,0.12-0.53,0.2-0.79,0.3c0.06-0.23,0.25-0.38,0.41-0.53c1.87-1.75,3.55-3.65,5.05-5.72c1.29-1.78,2.31-3.7,2.96-5.79    C80.76,8.61,80.92,7.65,81.14,6.7z M80.55,4.95c0.03,0.14,0.07,0.23,0.07,0.31c-0.01,0.26-0.02,0.53-0.06,0.79    c-0.36,2.21-0.94,4.35-2.01,6.33c-0.32,0.59-0.65,1.18-1.03,1.73c-1.11,1.57-2.25,3.11-3.6,4.51c-0.92,0.95-1.86,1.89-2.84,2.78    c-0.08,0.08-0.19,0.13-0.44,0.29c0.29-0.93,0.66-1.63,1.05-2.31c0.66-1.14,1.34-2.28,2.06-3.38c0.78-1.19,1.63-2.32,2.42-3.5    c0.94-1.4,1.87-2.8,2.74-4.23c0.43-0.71,0.7-1.52,1.07-2.27C80.15,5.67,80.21,5.27,80.55,4.95z M79.11,6.16    c-0.2,0.69-0.44,1.18-0.72,1.65c-0.91,1.55-1.9,3.06-2.95,4.53c-0.91,1.27-1.82,2.54-2.66,3.86c-0.95,1.5-1.89,3.01-2.59,4.65    c-0.02,0.04-0.06,0.07-0.15,0.16c-0.1-0.33-0.05-0.59-0.01-0.85c0.37-2.29,1.02-4.48,2.5-6.35c0.99-1.24,1.98-2.48,3.01-3.69    c0.88-1.02,1.82-1.99,2.72-2.99C78.53,6.87,78.76,6.57,79.11,6.16z M69.68,14.71c0.2-0.33,0.37-0.68,0.6-0.98    c0.28-0.38,0.59-0.76,0.92-1.1c0.87-0.9,1.75-1.79,2.66-2.65c1.08-1.03,2.19-2.03,3.29-3.03c0.3-0.27,0.6-0.54,1.02-0.91    C78,6.44,77.81,6.65,77.62,6.85c-0.59,0.64-1.19,1.26-1.77,1.9c-1.47,1.59-2.84,3.27-4.11,5.01c-0.79,1.07-1.37,2.25-1.73,3.53    c-0.31,1.08-0.62,2.16-0.7,3.29c0,0.04-0.06,0.07-0.12,0.14c-0.06-0.14-0.12-0.26-0.16-0.39C68.51,18.37,68.62,16.49,69.68,14.71z     M76.14,39.24c-0.23,0.04-0.46,0.07-0.69,0.07c-0.76,0.02-1.52,0.01-2.28,0.03c-1.5,0.06-2.93-0.3-4.32-0.79    c-1.22-0.43-2.37-1-3.49-1.63c-0.48-0.27-0.92-0.59-1.32-0.98c-0.98-0.96-1.83-2.03-2.57-3.19c-0.14-0.22-0.24-0.47-0.36-0.71    c0.23,0.03,0.39,0.19,0.55,0.33c1.85,1.58,3.83,2.96,5.96,4.16c1.83,1.03,3.77,1.8,5.85,2.19c0.92,0.17,1.87,0.23,2.8,0.34    C76.24,39.14,76.2,39.23,76.14,39.24z M76.34,39.17c-0.02-0.02-0.03-0.06-0.04-0.09c0.02,0,0.04,0.01,0.05,0.01    c0.03,0.02,0.06,0.04,0.09,0.06C76.41,39.16,76.36,39.18,76.34,39.17z M62.07,29.1c0.12-0.04,0.24-0.08,0.36-0.12    c0.03-0.01,0.06-0.01,0.09-0.02c0,0,0,0,0-0.01c1.69-0.54,3.36-0.56,5.02,0.19c0.34,0.15,0.68,0.28,1,0.46    c0.4,0.23,0.78,0.48,1.14,0.76c0.94,0.73,1.88,1.46,2.79,2.23c1.09,0.91,2.15,1.85,3.22,2.78c0.29,0.25,0.57,0.51,0.97,0.87    c-0.41-0.12-0.62-0.28-0.83-0.43c-0.66-0.49-1.32-0.98-1.99-1.47c-1.67-1.22-3.41-2.33-5.2-3.35c-1.1-0.63-2.29-1.06-3.56-1.27    c-1.07-0.18-2.14-0.36-3.23-0.32c-0.03,0-0.07-0.05-0.14-0.09C61.84,29.21,61.95,29.14,62.07,29.1z M62.31,30.03    c2.24,0.11,4.41,0.51,6.34,1.71c1.29,0.8,2.57,1.61,3.83,2.45c1.06,0.72,2.08,1.5,3.13,2.25c0.29,0.21,0.59,0.4,1.02,0.68    c-0.69-0.11-1.18-0.3-1.66-0.51c-1.58-0.7-3.12-1.47-4.63-2.31c-1.31-0.72-2.61-1.46-3.96-2.1c-1.53-0.74-3.07-1.47-4.71-1.96    c-0.04-0.01-0.07-0.05-0.17-0.12C61.8,30,62.06,30.01,62.31,30.03z M63.21,31.5c1.16,0.5,2.32,1.02,3.44,1.59    c1.21,0.61,2.38,1.3,3.59,1.92c1.43,0.74,2.86,1.47,4.32,2.14c0.73,0.33,1.53,0.51,2.29,0.78c0.34,0.12,0.72,0.14,1.06,0.42    c-0.13,0.04-0.21,0.09-0.29,0.1c-0.25,0.02-0.51,0.03-0.76,0.02c-2.16-0.11-4.27-0.45-6.28-1.24c-0.6-0.24-1.2-0.49-1.76-0.79    c-1.61-0.88-3.2-1.8-4.67-2.92c-1-0.77-1.99-1.55-2.93-2.38c-0.08-0.07-0.14-0.16-0.32-0.38C61.81,30.93,62.52,31.2,63.21,31.5z     M56.96,13.14c0.02-0.03,0.04-0.06,0.06-0.09c0.01,0.03,0.03,0.08,0.01,0.1c-0.02,0.02-0.06,0.03-0.09,0.04    C56.95,13.17,56.95,13.15,56.96,13.14z M56.51,16.04c0.21-0.93,0.29-1.89,0.43-2.84c0.06,0.05,0.16,0.08,0.16,0.14    c0.04,0.23,0.05,0.46,0.05,0.69c-0.01,0.77-0.04,1.54-0.04,2.3c0.01,1.52-0.4,2.96-0.94,4.37c-0.47,1.24-1.08,2.41-1.76,3.55    c-0.29,0.49-0.63,0.94-1.03,1.35c-1.01,1.01-2.12,1.89-3.31,2.66c-0.23,0.15-0.49,0.25-0.73,0.38c0.04-0.23,0.21-0.4,0.35-0.56    c1.66-1.9,3.12-3.93,4.4-6.1C55.21,20.11,56.05,18.14,56.51,16.04z M56.26,11.58c0.04,0.13,0.09,0.21,0.09,0.29    c0.01,0.26,0.02,0.51,0,0.77c-0.19,2.18-0.59,4.32-1.46,6.36c-0.26,0.61-0.53,1.22-0.86,1.79c-0.94,1.65-1.92,3.27-3.1,4.77    c-0.81,1.03-1.63,2.04-2.5,3.01c-0.07,0.08-0.17,0.14-0.39,0.33c0.21-0.93,0.51-1.66,0.84-2.36c0.55-1.18,1.11-2.36,1.72-3.51    c0.65-1.23,1.39-2.43,2.06-3.66c0.79-1.46,1.58-2.92,2.31-4.41c0.36-0.74,0.56-1.55,0.86-2.32    C55.93,12.31,55.96,11.92,56.26,11.58z M54.25,13.95c0.22-0.3,0.42-0.6,0.72-1.04c-0.14,0.69-0.34,1.2-0.57,1.68    c-0.76,1.61-1.59,3.18-2.48,4.72c-0.77,1.34-1.56,2.67-2.25,4.04c-0.79,1.56-1.59,3.13-2.14,4.79c-0.01,0.04-0.05,0.08-0.13,0.17    c-0.11-0.31-0.09-0.57-0.07-0.82c0.19-2.26,0.65-4.46,1.93-6.43c0.85-1.31,1.71-2.63,2.61-3.91    C52.63,16.06,53.46,15.02,54.25,13.95z M46.6,22.24c0.16-0.34,0.3-0.7,0.5-1.02c0.24-0.4,0.51-0.8,0.8-1.17    c0.77-0.96,1.54-1.93,2.34-2.86c0.96-1.12,1.94-2.21,2.92-3.3c0.26-0.3,0.54-0.59,0.91-0.99c-0.14,0.41-0.3,0.63-0.47,0.85    c-0.51,0.68-1.04,1.36-1.55,2.04c-1.28,1.71-2.47,3.48-3.56,5.32c-0.67,1.13-1.14,2.33-1.4,3.61c-0.22,1.08-0.44,2.16-0.43,3.27    c0,0.03-0.05,0.07-0.1,0.14c-0.07-0.13-0.14-0.24-0.18-0.36C45.75,25.92,45.73,24.08,46.6,22.24z"></path>
        </g>
    </g>
</svg>