<svg width="100"
    xmlns="http://www.w3.org/2000/svg"
    xmlns:xlink="http://www.w3.org/1999/xlink" id="OBJECTS" x="0px" y="0px" viewBox="0 0 102.01 69.99" style="enable-background:new 0 0 102.01 69.99;" xml:space="preserve">
    <g>
        <g>
            <path fill="#ccc" d="M67.28,33.87c0.88,0.29,1.63-0.02,2.29,0.27c4.26-6.95,8.02-14.36,11.76-21.61c1.58-3.06,3.66-5.93,5.13-8.98    c1.81-3.74-1.96-4.77-4.24-1.96c-2.27,2.8-3.84,6.44-5.84,9.47c-2.16,3.28-4.21,6.61-6.01,10.09c-0.94,1.81-2.14,3.49-3.2,5.24    c-0.78,1.3-2.58,3.33-2.46,4.87C64.82,32.8,65.97,33.44,67.28,33.87z M57.76,8.82c-1.25-2.55-2.84-5.14-6.23-4.75    c-5.95,0.68-7.52,10.91-7.03,15.5c0,4.58,1.41,13.52,8.15,11.63c5.19-1.45,6.51-10.02,7.1-14.33c0.19-1.35,0.28-2.99-0.05-4.34    C59.35,11.1,58.4,10.13,57.76,8.82z M58.24,16.62c-0.39,3.32-1.58,10.34-4.98,12.24c-2.36,1.32-2.63-1.14-2.91-2.88    c-0.43-2.64-0.39-5.48-0.19-8.14c0.13-1.77,1.19-12.88,3.72-11.44c-0.56,1.26,1.94,3.46,2.63,4.68    C57.61,13.07,58.54,14.06,58.24,16.62z M36.08,31.07c5.65-1.52,7.52-8.98,7.34-13.95c-0.44-5.95-2.56-12.72-9.92-11.5    c-4.66,0.77-5.94,10.97-5.94,14.9C27.57,25.1,29.86,32.74,36.08,31.07z M32.58,19.48c0.18-1.97,0.34-3.95,0.89-5.86    c0.62-2.16,1.78-4.15,2.22-6.34c1.72-0.91,3.91,1.83,4.74,3.05c1.35,1.99,1.51,4.29,1.57,6.63c0.08,3.65-0.77,8.98-4.32,11.19    C33.14,30.98,32.36,21.84,32.58,19.48z M25.36,32.58c2.21-1.43,0.08-2.21-1.29-2.43c0-4.64,0.84-9.45,1.15-14.09    c0.16-2.41,0.16-4.78,0.24-7.19c0.05-1.6,0.98-4.16-1.24-4.23c-1.86-0.06-2.64,1.8-3.03,3.28c-0.55,2.1-0.48,1.94-2.55,3.04    c-0.44,0.24-5.87,2.86-3.79,3.69c1.08,0.43,4.82-2.49,5.89-2.85c0.33,4.02-0.44,8.81-0.96,12.81c-0.1,0.75-0.21,4.75-0.94,5.27    c-0.72,0.52-2.58-0.31-2.91,1.02c-0.46,1.85,5.76,1.76,6.84,1.87C23.76,32.85,24.63,33.06,25.36,32.58z M82.93,21.75    c-2.65,0.11-4.85,2.22-4.92,4.76c-0.07,2.4,1.57,5.69,4.27,6.04c3.47,0.46,4.89-2.91,5.22-5.58c0.55,0.07-0.79-2.61-0.95-2.84    C85.66,22.84,84.65,21.68,82.93,21.75z M85.57,28.46c-0.22,0.55-1.61,2.28-2.37,2.11c-2.27-0.52-0.2-5.46,0.96-6.19    C85.45,25.21,86.17,26.96,85.57,28.46z M70.14,10.88c2.49,0.42,4.48-1.67,4.97-3.98c1.23-5.86-9.1-8.4-9-1.29    C66.32,8.21,67.22,10.38,70.14,10.88z M71.84,4.04c1.07-0.11,1.24,0.91,1.7,1.77c-0.56,1.59-2.97,4.92-3.46,1.26    C69.96,6.16,70.68,4.16,71.84,4.04z M12.97,43.42c-0.46,0.02-0.93,0-1.4-0.01c-0.28-0.01-0.59,0.03-0.84-0.05    c-0.82-0.28-0.55,0.61-0.93,0.79c0.23,0.18,0.44,0.39,0.68,0.54c0.32,0.2,0.8,0.17,0.82,0.75c0.08,2.15,0.18,4.3,0.33,6.45    c0.14,2.01,0.4,4,0.25,6.03c-0.11,1.5-0.03,3.01-0.04,4.52c0,0.26-0.06,0.51-0.09,0.77c-0.05,0.01-0.09,0.02-0.14,0.02    c-0.11-0.19-0.23-0.36-0.32-0.56c-0.53-1.23-1-2.48-1.57-3.7c-0.99-2.11-2.03-4.2-3.06-6.3c-1.18-2.42-2.41-4.83-3.55-7.27    c-0.55-1.17-1.34-1.82-2.61-1.8c-0.66,0.63-0.61,1.34-0.25,1.99c0.58,1.03,0.54,2.15,0.64,3.25c0.17,1.91,0.34,3.82,0.47,5.73    c0.13,1.85,0.26,3.7,0.34,5.55c0.08,1.86,0.09,3.71,0.13,5.57c0.01,0.71,0,1.42,0,2.16c-0.29-0.02-0.49-0.05-0.69-0.06    c-0.61-0.03-0.93,0.25-0.96,0.84c-0.03,0.56,0.32,0.89,0.93,0.91c0.29,0.01,0.58,0.1,0.87,0.09c0.75-0.02,1.51,0.03,2.23-0.14    c0.45-0.1,1.17-0.19,1.08-1.04c-0.42-0.07-0.84-0.13-1.24-0.23c-0.12-0.03-0.27-0.19-0.28-0.31c-0.15-1.06-0.4-2.12-0.38-3.18    c0.06-2.97-0.06-5.92-0.27-8.87c-0.09-1.22-0.17-2.44-0.25-3.66c0.39,0.53,0.66,1.1,0.93,1.68c1.18,2.52,2.38,5.03,3.52,7.57    c0.66,1.48,1.16,3.03,1.82,4.51c0.5,1.11,1.14,2.15,2.54,2.39c0.18,0.03,0.34,0.19,0.51,0.28c0.37,0.2,0.74,0.35,0.92-0.23    c0.18,0.12,0.34,0.21,0.7,0.44c0-0.59,0.03-1.02-0.01-1.43c-0.03-0.34-0.2-0.68-0.19-1.02c0.03-1.93,0.12-3.86,0.13-5.8    c0.01-1.88-0.05-3.76-0.08-5.64c-0.02-1.21-0.03-2.41-0.07-3.62c-0.07-1.94-0.16-3.88-0.26-5.81c-0.03-0.51,0.15-0.84,0.63-1.08    c0.3-0.15,0.56-0.38,0.81-0.61c0.08-0.07,0.13-0.26,0.09-0.36c-0.04-0.09-0.21-0.19-0.32-0.18C14.02,43.32,13.5,43.4,12.97,43.42z     M73.1,66.65c-0.3-0.16-0.87-0.07-1.21,0.11c-0.44,0.23-0.56,0.02-0.75-0.25c-1.12-1.66-2.23-3.33-3.37-4.98    c-0.28-0.4-0.23-0.72,0.2-0.83c1.75-0.47,2.61-1.91,3.67-3.13c0.17-0.2,0.37-0.42,0.42-0.66c0.29-1.37,0.71-2.74,0.77-4.12    c0.08-2.03-0.51-3.89-1.8-5.58c-0.83-1.08-1.8-1.81-3.05-2.28c-1.01-0.38-2.02-0.78-3.04-1.15c-0.16-0.06-0.38,0.05-0.58,0.07    c-0.25,0.02-0.5,0.05-0.75,0.04c-0.45-0.03-1.18,0.41-1.11,0.79c0.05,0.28,0.39,0.71,0.6,0.71c0.6-0.01,0.5,0.29,0.43,0.63    c-0.07,0.39-0.2,0.79-0.2,1.18c-0.02,3.4-0.04,6.79-0.02,10.19c0.02,2.77,0.09,5.54,0.14,8.32c0.02,1.08,0.09,2.14,0.95,2.99    c0.41,0.4,1.74,0.49,1.96-0.01c0.24-0.55,0.42-1.17,0.45-1.77c0.07-1.29,0.02-2.59,0.02-3.88c0,0,0.07,0.03,0.1,0.07    c0.98,1.62,2,3.22,2.91,4.88c0.4,0.73,1.01,0.99,1.73,1.15c0.11,0.02,0.28-0.04,0.37-0.13c0.31-0.29,0.59-0.61,0.9-0.9    C73.25,67.74,73.48,66.85,73.1,66.65z M66.67,59.61c-0.64-3.02-0.64-6.05-0.64-9.09c0-1.44,0.02-2.89,0.01-4.33    c0-0.53,0.19-0.6,0.66-0.43c2.7,0.94,3.95,2.9,4.3,5.6c0.18,1.4,0.2,2.8-0.31,4.09c-0.69,1.76-1.91,3.17-3.66,4.05    C66.92,59.56,66.78,59.58,66.67,59.61z M87.02,49.1c-0.71-2.14-1.96-3.96-4.15-4.96c-0.22-0.1-0.46-0.15-0.69-0.23    c0.09-0.1,0.17-0.2,0.26-0.3c-0.07,0.05-0.14,0.1-0.21,0.13c-0.08,0.03-0.17,0.04-0.26,0.06c-2.02,0.42-3.85,1.13-4.82,3.14    c-0.09,0.18-0.4,0.24-0.61,0.36c-0.26,0.15-0.62,0.23-0.76,0.45c-0.11,0.17-0.04,0.57,0.1,0.77c0.67,1,2.51,1.29,3.65,0.52    c-0.3-0.28-0.59-0.55-0.91-0.84c0.64-1.42,1.82-2.24,3.35-2.61c0.25-0.06,0.59,0.01,0.83,0.14c1.61,0.82,2.06,2.34,2.11,3.92    c0.07,2.25-0.05,4.52-0.11,6.77c-0.02,0.77-0.11,1.54-0.16,2.3c-0.73-0.13-1.38-0.3-2.04-0.36c-0.72-0.07-1.44-0.04-2.16-0.05    c-2.06-0.03-4.48,1.5-5.14,3.33c-0.67,1.88,0.05,3.56,1.11,5.02c1.47,2.03,3.67,2.63,6.11,2.3c0.95-0.12,1.9-0.4,2.46-1.37    c0.09,0.47,0.08,0.9,0.28,1.21c0.16,0.26,0.55,0.51,0.84,0.52c0.33,0,0.8-0.06,0.78-0.67c-0.03-0.84,0.08-1.69,0.1-2.54    c0.02-0.58-0.05-1.16-0.01-1.73c0.13-2.14,0.33-4.28,0.41-6.42c0.07-1.8,0.06-3.61,0.01-5.42C87.35,51.38,87.38,50.17,87.02,49.1z     M84.23,66.13c-0.05,0.66-0.87,1.17-1.85,1.22c-0.27,0.01-0.55,0-0.65,0c-1.03,0.04-1.87-0.01-2.53-0.62    c-0.35-0.32-0.68-0.7-0.9-1.12c-0.89-1.68-0.96-3.43,0.8-4.89c1.36-1.12,2.88-0.98,4.42-0.79c0.63,0.08,0.99,0.65,0.98,1.2    C84.47,62.8,84.35,64.47,84.23,66.13z M29.12,66.39c-0.11-1.59-0.08-3.19-0.1-4.79c0-0.4,0.04-0.79,0.09-1.19    c0.11-0.86,0.31-1.71,0.34-2.57c0.05-1.29-0.13-2.59-0.02-3.87c0.13-1.54,0.24-3.03,0.02-4.6c-0.2-1.45-0.69-2.7-1.44-3.89    C27.69,45,27.2,44.57,26.7,44.2c-1.26-0.93-2.59-0.49-3.82,0.03c-2.78,1.18-4.17,3.48-4.97,6.25c-0.09-0.04-0.15-0.07-0.21-0.1    c-0.47-0.31-1.05-0.5-1.4,0c-0.33,0.48-0.14,1.05,0.43,1.37c0.55,0.31,1.09,0.63,1.65,0.9c0.7,0.33,1.26,0,1.89-0.43    c-0.26-0.23-0.5-0.39-0.67-0.61c-0.16-0.2-0.36-0.47-0.33-0.69c0.18-1.51,0.86-2.84,1.89-3.92c0.9-0.94,2.01-1.62,3.4-1.79    c0.86-0.11,1.31-0.03,1.73,0.64c1.09,1.73,1.6,3.62,1.56,5.65c-0.04,1.81-0.08,3.63-0.15,5.44c-0.03,0.66-0.16,1.32-0.24,1.97    c-0.9-0.27-1.72-0.6-2.57-0.76c-0.79-0.14-1.63-0.23-2.41-0.11c-1.75,0.26-3.04,1.37-4.2,2.57c-1.28,1.32-1.61,2.94-0.93,4.63    c0.29,0.71,0.88,1.34,1.45,1.88c1.62,1.54,4.68,2.39,6.97,1.03c0.45-0.27,0.84-0.42,1.16,0.21c0.12,0.24,0.5,0.35,0.4,0.74    c-0.01,0.02,0.25,0.15,0.39,0.17c0.13,0.02,0.28-0.04,0.41-0.08c0.52-0.18,1.05-0.37,1.56-0.58c0.05-0.02,0.04-0.27,0-0.4    C29.51,67.58,29.16,67,29.12,66.39z M26.78,63.76c-0.06,0.46-0.12,0.92-0.15,1.39c-0.03,0.47-0.01,0.93-0.01,1.51    c-1.07,0.14-2.08,0.43-3.08,0.39c-2.72-0.11-3.94-1.54-3.61-4.27c0.22-1.81,2.82-3.42,4.26-3.25c0.49,0.06,0.99,0.09,1.48,0.16    c0.66,0.09,1.47,1.14,1.4,1.84C27,62.27,26.88,63.01,26.78,63.76z M59.13,47.36c-0.15-0.52-0.2-1.13-0.05-1.64    c0.19-0.69,0.18-0.97-0.56-1.02c-0.74-0.06-1.5,0.06-2.16,0.1c-0.15,0.26-0.31,0.41-0.33,0.58c-0.03,0.21,0.01,0.46,0.11,0.65    c0.06,0.11,0.31,0.22,0.44,0.19c0.6-0.13,1.05-0.14,0.88,0.68c-0.02,0.08,0.05,0.17,0.08,0.25c0.19,0.73,0.48,1.45,0.56,2.19    c0.13,1.15,0.14,2.32,0.15,3.48c0.02,1.87,0,3.75,0.01,5.62c0.01,2.57-0.53,4.97-2.12,7.08c-0.46,0.61-1.09,1.24-1.84,1.04    c-0.53-0.14-1.13-0.79-1.28-1.33c-0.36-1.23-0.93-2.39-0.98-3.74c-0.04-1.05-0.48-2.07-0.43-3.18c0.04-0.77-0.34-1.56-0.35-2.35    c-0.04-1.94-0.03-3.88,0.06-5.82c0.06-1.35,0.28-2.69,0.43-4.07c0.18-0.1,0.49-0.28,0.79-0.45c-0.68-0.89-1.5-0.62-2.26-0.67    c-0.47-0.03-0.94-0.12-1.41-0.16c-0.18-0.02-0.4-0.02-0.55,0.06c-0.5,0.27-0.48,1.17,0.12,1.47c0.45,0.23,0.35,0.43,0.3,0.77    c-0.22,1.54-0.52,3.07-0.59,4.62c-0.08,1.68,0.04,3.37,0.12,5.05c0.05,1.02,0.17,2.04,0.34,3.05c0.34,2.01,1.09,3.89,2.03,5.68    c0.65,1.22,1.45,2.41,3.07,2.69c1.19,0.2,3.49-0.55,3.94-1.57c0.65-1.48,1.32-3.01,1.61-4.58c0.36-1.96,0.36-3.99,0.45-5.99    c0.04-0.81-0.14-1.63-0.14-2.45C59.56,51.51,59.71,49.41,59.13,47.36z M45.83,42.99c-1.62,0.6-3.33,0.44-4.98,0.57    c-2.82,0.21-5.67,0.05-8.51,0.05c-0.12,0-0.27,0-0.35,0.06c-0.65,0.49-0.58,2.11,0.1,2.55c0.08,0.05,0.22,0.06,0.32,0.04    c0.2-0.05,0.4-0.13,0.65-0.21c0.02-0.21,0.05-0.5,0.07-0.77c1.62,0,3.2,0,4.77,0c-0.02,0.15-0.06,0.3-0.06,0.45    c-0.04,1.62-0.08,3.25-0.1,4.87c-0.03,2.63-0.06,5.25-0.06,7.88c0,3.14,0.03,6.28,0.08,9.42c0.01,0.37-0.07,0.47-0.42,0.49    c-0.45,0.02-0.83,0.22-0.83,0.7c0,0.3,0.18,0.6,0.28,0.89c0.24-0.04,0.42-0.11,0.59-0.1c1.26,0.07,2.47-0.11,3.63-0.58    c0.23-0.1,0.39-0.36,0.59-0.55c-0.17-0.15-0.33-0.32-0.52-0.46c-0.08-0.06-0.21-0.06-0.33-0.08c-0.1-2.58-0.23-5.14-0.3-7.7    c-0.04-1.49,0.01-2.99,0.02-4.49c0.01-1.15,0.05-2.31,0.02-3.46c-0.03-1.24-0.11-2.48-0.16-3.73c-0.03-0.84,0-1.68-0.08-2.52    c-0.07-0.78,0.19-1.15,0.96-1.23c1.1-0.11,2.19-0.24,3.22-0.36c0.3,0.92,0.59,1.79,0.89,2.69c0.33-0.14,0.6-0.26,0.86-0.37    c0.15-1.02,0.45-1.99,0.73-2.96C47.15,43.32,46.61,42.7,45.83,42.99z M101.57,66.15c-0.17-0.11-0.63-0.01-0.78,0.15    c-0.25,0.27-0.45,0.65-0.48,1.01c-0.05,0.52-0.2,0.68-0.72,0.52c-0.32-0.1-0.66-0.13-1-0.14c-1.08-0.06-2.16-0.11-3.23-0.13    c-0.44-0.01-0.68-0.24-0.67-0.59c0.03-1.61,0.09-3.22,0.19-4.83c0.07-1.09,0.26-2.18,0.32-3.27c0.04-0.73-0.09-1.46-0.09-2.19    c0.01-1.55,0.1-3.1,0.08-4.65c-0.03-1.81-0.11-3.61-0.25-5.41c-0.08-1.04-0.22-2.15-1.16-2.85c-0.35-0.26-0.9-0.53-1.28-0.45    c-0.59,0.13-1.1,0.56-1.65,0.87c-0.01,0.09-0.02,0.18-0.02,0.28c0.38,0.2,0.75,0.4,1.3,0.7c0.06,0.74,0.18,1.68,0.19,2.62    c0.03,2.11,0.04,4.23,0.01,6.34c-0.03,1.99-0.01,3.99-0.18,5.96c-0.21,2.44-0.6,4.86-0.38,7.32c0.06,0.62-0.18,1.43,0.88,1.51    c0.04,0,0.07,0.1,0.1,0.16c0.23,0.54,0.69,0.59,1.18,0.48c0.43-0.09,0.84-0.37,1.26-0.37c1.23,0,2.47,0.1,3.7,0.17    c0.04,0,0.09,0.04,0.13,0.04c0.7,0.02,1.35,0.04,1.99-0.43c0.73-0.54,0.69-1.36,0.99-2.05C102.07,66.75,101.8,66.3,101.57,66.15z"></path>
        </g>
    </g>
</svg>
