<svg width="150"
    xmlns="http://www.w3.org/2000/svg"
    xmlns:xlink="http://www.w3.org/1999/xlink" id="OBJECTS" x="0px" y="0px" viewBox="0 0 128 75.01" style="enable-background:new 0 0 128 75.01;" xml:space="preserve">
    <g>
        <g>
            <path fill="#ccc" d="M59.48,37.91c-1.14-0.21-1.67,0.21-2.13,1.26c-0.31,0.7-0.42,1.45-0.82,2.1c-0.34,0.55-0.84,1.03-1.23,1.54    c-0.75,0.97-1.46,1.97-2.21,2.93c-0.73,0.93-1.63,2.25-2.69,2.83c-0.72,0.39-0.7,0.57-0.99-0.3c-0.21-0.61-0.05-1.54,0-2.17    c0.19-2.34,0.62-5.13,2.39-6.81c0.93-0.88,1.97-1.19,3.22-1c0.63,0.1,2.99,0.4,1.76-0.82c-0.79-0.78-2.99-0.94-3.98-0.83    c-1.23,0.14-2.5,0.6-3.58,1.19c-2.34,1.3-3.72,3.79-4.38,6.32c-0.17,0.66-0.09,1.45-0.31,2.08c-0.23,0.64-0.7,0.96-1.2,1.42    c-1.05,0.95-2.04,1.94-2.95,3.02c-1.38,1.64-3.05,4.63-5.11,5.49c-0.81-3.08,0.75-6.5,1.09-9.54c0.12-1.07,1.02-3.29,0.37-4.27    c-0.76-1.15-2.87-1.07-4.02-0.94c-0.4,0.04-2.06,0.52-2.35,0.17C30.12,41.3,30.8,40.2,30.92,40c0.25-0.43,0.49-0.59,0.64-1.05    c0.14-0.43,0.38-2.07,0.29-2.52c-0.63-3.04-5.24-2.59-6.78-0.74c-0.87,1.05-1.16,2.51-0.67,3.78c0.24,0.63,0.67,1.27,1.14,1.75    c0.51,0.52,1.32,0.66,1.78,1.11c0.65,0.63,0.42,0.5-0.37,1.01c-0.53,0.34-0.99,0.64-1.5,1.05c-1.14,0.91-2.44,2.07-3.96,2.28    c-1.5,0.21-0.44-1.65-0.43-2.78c0.01-1.61-0.46-3.52-1.21-4.95c-0.7-1.35-2.15-2.28-3.66-2.2c-1.61,0.08-2.03,0.81-3.03,1.88    c-0.21-1.21,1.15-1.77,1.37-2.88c0.3-1.54-1.36-1.54-2.42-1.02c-1.13,0.55-2.12,1.56-2.9,2.53c-0.91,1.14-1.25,2.48-2.49,3.25    c-1.28,0.8-2.6,1.73-4.13,1.99c-0.88,0.15-2.06-0.79-2.45-0.07c-0.82,1.51,2.48,1.27,3.13,1.08c0.76-0.21,1.51-0.59,2.19-0.96    c0.49-0.27,0.88-0.81,1.52-0.64c-0.74,3.65-1.01,7.65,0.71,11.09c0.74,1.48,2.21,2.9,3.75,3.53c1.81,0.74,3.1-0.25,4.45-1.44    c1.4-1.23,2.38-2.9,3.15-4.57c0.39-0.84,0.65-1.76,1.51-2.18c0.81-0.39,1.81-0.45,2.64-0.85c1.75-0.85,2.99-2.44,4.42-3.72    c1.22-1.1,2.92-0.54,4.5-0.48c-0.66,2.96-1.3,5.94-1.61,8.97c-0.23,2.26-0.69,6.39,2.74,6.61c2.09,0.13,4.24-2.39,5.49-3.77    c1.94-2.15,3.44-5.26,6.05-6.72c1.13,2.47,2.99,4.4,5.62,2.32c2.18-1.73,3.64-4.08,5.39-6.19c-0.33,3.3-1.44,6.62-2.47,9.76    c-0.68,2.1-1.64,6.88-3.98,7.42c-1.62,0.37-3.27,0.48-4.88,0.96c-1.66,0.49-3.26,1.19-4.84,1.89c-2.55,1.14-5.98,2.73-7.01,5.57    c-0.92,2.52,1.22,4.51,3.6,4.84c1.32,0.18,2.73,0.15,4.03-0.12c1.28-0.26,2.14-0.91,3.27-1.44c2.72-1.28,4.96-2.99,7.23-4.94    c1.06-0.91,2.08-2.02,2.89-3.15c0.2-0.29,0.28-0.92,0.52-1.13c0.57-0.51,1.15,0.16,1.64-0.29c0.84-0.75-0.03-0.76-0.28-1.37    c-0.22-0.55-0.06-0.77,0.18-1.33c0.57-1.34,1.27-2.54,1.72-3.93c0.86-2.65,1.73-5.31,2.31-8.04c0.6-2.84,1.05-5.86,1.07-8.74    C60.79,39.1,61.14,38.22,59.48,37.91z M13.39,55.22c-1.37-2.11-1.58-4.96-1.76-7.4c-0.18-2.41-0.24-5.42,0.95-7.62    c0.35,0.13,0.09,2.57,0.19,3.05c0.21,0.99,0.68,2,1.25,2.84c1.23,1.82,2.85,1.94,4.76,2.54C17.93,51.07,15.71,54.02,13.39,55.22z     M19.34,46.82c-1.48,0.45-2.55-2.14-2.65-3.12c-0.16-1.49,0.09-3.43,1-4.65c1.2-0.1,1.35,0.31,1.74,1.46    c0.21,0.62,0.41,1.33,0.54,1.97C20.15,43.4,20.4,46.5,19.34,46.82z M29.12,41c-0.09-1.04-0.26-2.15-0.21-3.19    c0.06-1.21,0.27-1.35,1.37-1.68c0.7,0.8,0.68,1.88,0.46,2.92C30.6,39.71,29.85,40.96,29.12,41z M42.83,71.2    c-1.53,1.06-3.01,2.06-4.93,2.06c-0.99,0-2.93,0.12-3.44-0.92c-0.46-0.93,0.41-2.67,0.92-3.4c0.95-1.36,3.13-2.31,4.57-2.98    c2.99-1.39,6.33-2.79,9.68-2.84C47.73,66.13,45.8,69.15,42.83,71.2z M126.76,44.54c-1.98,0.45-3.22,3.72-4.23,5.24    c-0.53,0.79-1.47,2.47-2.42,2.79c-0.83,0.27-0.61,0.24-0.93-0.48c-0.21-0.46-0.07-1.62-0.11-2.15c-0.17-2.55,0.22-4.8,0.95-7.23    c0.47-1.58,2-5.11,4.2-4.17c-0.3,0.59-1.17,2.26-0.31,2.85c0.95,0.65,1.98-2.45,1.82-3.12c-0.25-1.09-1.94-1.75-2.89-1.76    c-1.41-0.02-2.72,0.78-3.86,1.52c-2.54,1.66-2.82,4.79-4.82,6.76c-0.53,0.52-1.92,2.15-2.68,2.22c-0.96,0.09-0.15-2.62-0.04-3.26    c0.35-1.96,2.21-6.26-0.07-7.55c-0.66-0.38-2.25-0.94-2.97-0.51c-0.91,0.55-1.12,2.97-1.3,3.92c-0.27,1.4-0.23,3.23-0.77,4.53    c-0.52,1.25-1.83,2.35-2.59,3.48c-0.76,1.13-1.47,2.26-2.31,3.35c-0.86,1.12-1.57,2.57-2.82,3.32c-0.21-2.4,0.72-4.61,1.2-6.9    c0.45-2.14,1.84-5.7,0.27-7.66c-0.48-0.6-1.39-1.38-2.02-1.32c-0.81,0.07-2.36,1.26-3.01,1.81c-0.85,0.72-1.55,1.61-2.23,2.48    c-0.6,0.77-1.3,2.26-2.11,2.78c-0.45-0.9,0.23-2.92,0.2-3.92c-0.03-0.99-0.21-1.71-0.88-2.29c-0.67-0.57-0.96-0.51-1.89,0.15    c-0.99,0.71-1.88,1.74-2.61,2.7c-1.3,1.69-2.18,3.76-3.23,5.61c-0.59,1.04-1.22,1.99-1.96,2.93c-0.57,0.73-1.06,1.87-1.85,2.35    c-0.24-1.1,0.23-2.75,0.36-3.88c0.19-1.58,0.44-3.14,0.72-4.71c0.3-1.7,0.9-6.33-2.33-5.09c-2,0.77-3.22,4.19-4.13,5.92    c-1.12,2.15-2.59,4.29-4.59,5.74c-0.24-2.78,0.38-6.1,1.9-8.48c0.53-0.83,1.56-2.04,2.36-2.59c0.78-0.53,3.08-0.2,3.36-1.17    c0.36-1.26-2.74-0.86-3.4-0.76c-1.36,0.23-2.66,0.94-3.9,1.52c-1.33,0.61-2.77,1.04-4.24,1.2c-0.58,0.06-3.7-0.28-3.32,0.84    c0.35,1.05,2.46,0.43,3.23,0.42c1.01-0.02,0.91-0.27,0.69,0.6c-0.19,0.76-0.92,1.5-1.2,2.26c-0.74,2.02-1.67,5.68,0.13,7.15    c2.35,1.93,4.37,1.23,6.35-0.79c0.92-0.94,1.57-1.96,2.32-3.03c0.51-0.73,1.22-2.79,2.09-3.05c0.45,0.56-0.37,2.92-0.45,3.62    c-0.17,1.43-0.37,3.11-0.17,4.53c0.41,2.91,2.44,3.57,4.61,1.77c0.98-0.81,1.51-1.93,2.26-2.93c0.87-1.16,1.71-2.16,2.38-3.47    c0.53-1.04,1.07-2.08,1.63-3.1c0.4-0.72,1.06-2.3,1.82-2.63c-0.28,2.7-0.71,5.44-1.27,8.09c-0.24,1.16-0.77,2.83,0.62,3.4    c0.88,0.36,2,0.33,2.58-0.31c0.69-0.77,0.79-2.19,1.24-3.12c0.64-1.34,0.9-2.81,1.63-4.12c0.61-1.09,1.29-2.15,2.04-3.14    c0.66-0.87,1.89-2.77,3.02-3.03c-0.21,1.28-0.76,2.57-1.06,3.86c-0.35,1.51-0.76,2.95-1.04,4.47c-0.38,2.05-1.03,4.8,0.63,6.49    c4.31,4.4,8.47-6.78,10.78-8.65c0.45,0.34,0.44,1.35,0.95,1.82c0.61,0.57,1.59,0.83,2.41,0.77c1-0.09,2.06-0.69,2.87-1.27    c0.63-0.45,1.26-1.37,2.05-1.52c0.21,0.68-0.04,1.63,0.01,2.36c0.05,0.63,0.2,1.23,0.28,1.85c0.14,1.08,0.25,1.91,1.08,2.69    c2.01,1.9,4.52,1.23,6.35-0.65c1.75-1.79,2.58-4.35,4.22-6.24c0.48-0.55,1.5-0.75,1.62-1.28    C128.15,44.61,127.45,44.39,126.76,44.54z M111.21,34.02c0.77-0.52,2.33-1.21,2-2.4c-0.17-0.62-1.15-1.33-1.79-1.5    c-1.08-0.29-2.26,0.84-2.09,2.03C109.45,32.94,110.53,33.71,111.21,34.02z M62.43,29.96c0.69,0.4,1.26,0.26,1.95-0.03    c-0.18-0.97-0.88-1.69-1.56-2.41c-1.13-1.19-2.34-2.32-3.48-3.5c-2.23-2.31-5.19-3.67-8.79-4.05c-1.38-0.14-2.07-0.88-3.16-1.46    c2.77-0.2,5.29,0.33,7.86,0.41c2.9,0.09,5.76,0.14,8.64-0.29c0.46-0.07,1.19,0.13,1.45,0.42c0.52,0.58,0.74,1.33,1.21,1.95    c0.63,0.84,1.25,1.72,2.1,2.4c1.02,0.83,2.28,1.46,3.41,2.2c1.17,0.77,2.52,1.08,4.03,1.06c1.34-0.02,2.68-0.01,4.02-0.03    c0.29,0,0.78-0.05,0.82-0.15c0.1-0.27,0.1-0.63-0.04-0.88c-0.18-0.31-0.52-0.58-0.82-0.83c-1.42-1.18-2.74-2.46-4.31-3.49    c-1.08-0.71-2.57-1-3.78-1.6c-1.68-0.83-3.55-0.83-5.41-0.94c-0.35-0.02-0.68-0.15-1.14-0.26c0.23-0.16,0.27-0.2,0.32-0.22    c3.25-0.76,6.5-1.53,9.75-2.28c0.37-0.09,0.86-0.28,1.11-0.16c0.74,0.33,1.57,0.68,2.04,1.21c0.76,0.86,1.25,1.88,1.86,2.83    c1.9,2.91,5.06,3.99,9.02,3.83c1.62-0.06,3.24-0.25,4.86-0.39c0.2-0.02,0.4-0.12,0.61-0.19c-0.54-0.67-0.99-1.33-1.56-1.9    c-0.8-0.8-1.64-1.6-2.58-2.3c-1.19-0.89-2.38-1.86-3.79-2.46c-1.99-0.84-4.22-0.93-6.43-0.27c-1.21,0.36-2.02-0.17-2.98-0.66    c0.27-0.14,0.42-0.27,0.59-0.32c1.12-0.3,2.26-0.54,3.36-0.88c0.69-0.21,1.25-0.21,1.77,0.19c1.07,0.8,2.5,1.01,3.83,1.2    c2.62,0.39,4.76-0.69,6.8-1.94c1.58-0.96,2.56-2.32,3.8-3.5c0.73-0.69,0.64-1.03-0.43-1.15c-3.26-0.37-6.55-0.61-9.7,0.61    c-1.42,0.55-2.8,1.15-3.85,2.19c-0.57,0.57-1.07,1.25-2.1,1.49c-1.16,0.27-2.25,0.73-3.55,1.16c0.12-0.29,0.14-0.42,0.22-0.53    c0.42-0.57,1.11-0.84,1.82-1.13c1.33-0.55,2.82-0.99,3.87-1.79c2.02-1.53,2.52-3.62,2.55-5.75C86.69,4,86.7,2.63,86.68,1.25    c0-0.27-0.16-0.53-0.25-0.79c-0.31,0.11-0.69,0.17-0.93,0.35c-0.77,0.6-1.45,1.29-2.24,1.87c-2.6,1.92-4.12,4.27-4.51,7.05    c-0.08,0.57,0.12,1.16,0.17,1.74c0.02,0.2,0.09,0.54-0.01,0.58c-0.71,0.29-0.51,0.92-0.87,1.33c-0.66,0.73-1.11,1.61-2.38,1.89    c-1.16,0.26-2.29,0.65-3.44,0.96c-1.19,0.32-2.39,0.61-3.58,0.91c0.13-1.09,1.07-1.52,2.03-1.76c1.38-0.35,2.3-1.18,3.05-2.01    c2.18-2.39,3.37-5.08,3.36-8.05c0-0.54-0.06-1.12,0.17-1.61c0.3-0.66-0.08-0.98-0.57-1.46c-0.18,0.34-0.23,0.61-0.42,0.77    c-0.93,0.73-1.88,1.45-2.85,2.14c-1.05,0.76-2.26,1.39-3.19,2.24c-2.36,2.16-2.36,4.72-1.72,7.31c0.19,0.77-0.83,2.55-1.8,2.76    c-1.55,0.33-3.11,0.63-4.68,0.82c-2.37,0.28-4.75,0.29-7.27,0.01c0.21-0.27,0.31-0.55,0.53-0.66c0.65-0.34,1.35-0.62,2.03-0.92    c0.54-0.24,1.13-0.43,1.63-0.72c1.94-1.12,3.22-2.62,3.82-4.48c0.24-0.75,0.64-1.47,0.74-2.23c0.24-1.71,0.35-3.42,0.48-5.13    c0.02-0.21-0.18-0.43-0.28-0.65c-0.26,0.08-0.57,0.12-0.79,0.26c-1.04,0.67-2.02,1.41-3.09,2.05c-1.69,1.02-3.58,1.76-4.62,3.44    c-1.45,2.35-1.89,4.63-0.62,7.03c0.51,0.96-0.45,1.99-1.76,1.9c-1.33-0.09-2.67-0.14-4.01-0.24c-1.97-0.14-3.93-0.3-6.05-0.47    c0.6-0.45,1.18-0.93,1.81-1.33c1.13-0.72,2.56-1.23,3.17-2.34c0.64-1.15,1.24-2.36,1.54-3.59c0.79-3.25,0.84-6.53,0.54-9.81    c-0.01-0.16-0.24-0.36-0.43-0.41c-0.16-0.04-0.45,0.07-0.6,0.19c-1.51,1.14-3.03,2.28-4.5,3.46c-1.08,0.87-2.2,1.78-2.54,3.03    c-0.42,1.51-0.7,3.03-1.02,4.55c-0.07,0.31-0.2,0.67-0.08,0.94c0.54,1.26,1.09,2.51,1.78,3.72c0.32,0.56,0.01,0.9-0.3,1.29    c-0.28,0.35-0.63,0.53-1.26,0.5c-1.73-0.08-3.45-0.16-5.19-0.17c-1.59-0.01-3.18-0.14-4.78-0.17c-0.43-0.01-1.04-0.11-1.23,0.56    c0.34,0.03,0.63,0.06,0.92,0.07c1.83,0.05,3.66,0.07,5.48,0.14c0.89,0.04,1.79,1,1.63,1.7c-0.75,3.38,0.36,6.32,2.85,9    c1.07,1.15,2.38,2.06,3.77,2.9c1.34,0.82,2.73,1.58,4.11,2.34c0.17,0.09,0.62,0.1,0.66,0.03c0.12-0.18,0.16-0.44,0.1-0.64    c-0.38-1.21-0.97-2.4-1.16-3.63c-0.36-2.31-1.75-4.24-3.02-6.22c-1.2-1.87-3.29-3.04-5.49-4.08c-0.68-0.32-1.62-0.49-1.78-1.41    c1.09,0.03,2.2-0.13,3.08,0.15c1,0.32,1.87-0.23,2.8,0.01c0.55,0.14,1.18,0.17,1.76,0.12c1.15-0.09,1.63,0.71,2.44,1.07    c0.06,0.03,0.12,0.12,0.1,0.17c-0.25,1.17,0.29,2.2,0.84,3.21c0.93,1.72,1.88,3.42,3.76,4.66c2.47,1.62,5.2,2.55,8.48,2.33    C61.5,29.81,62.1,29.77,62.43,29.96z M68.47,20.78c0.66,0.16,1.44,0.08,1.33,0.96c-0.07,0.54,0.1,1.09,0.16,1.69    C68.42,22.89,68.84,21.73,68.47,20.78z M70.69,21.77c0.68,0.09,0.94,0.29,0.9,0.86c-0.05,0.68,0.13,1.36,0.21,2.03    C70.96,24.62,70.93,24.55,70.69,21.77z M72.72,24.75c0.01-0.78-0.31-1.55-0.53-2.49c1,0.39,1.61,0.64,1.45,1.53    c-0.12,0.61,0.18,1.25,0.3,1.94C73.29,25.57,72.71,25.53,72.72,24.75z M75.4,24.92c0.13,0.36,0.25,0.73,0.39,1.1    c-0.96,0.1-1.72-1.45-1.25-2.67c0.46,0.4,0.86,0.74,1.26,1.09C75.33,24.46,75.26,24.54,75.4,24.92z M77.34,26.07    c-0.64,0.15-0.89-0.07-1-0.57c-0.09-0.37-0.35-0.71-0.54-1.06c0.11-0.01,0.28-0.06,0.31-0.03C76.6,24.92,77.46,25.25,77.34,26.07z     M79.74,25.49c-0.63-0.24-1.05-0.4-1.5-0.57C78.91,24.44,78.98,24.46,79.74,25.49z M78.11,23.84c-0.2,0.15-0.41,0.32-0.67,0.52    c-0.44-0.24-0.86-0.46-1.38-0.74C77.21,23.14,77.56,23.18,78.11,23.84z M76.55,22.65c-0.82,0.58-1.6,0.25-2.47-0.02    C75.2,21.71,75.77,21.72,76.55,22.65z M74.76,21.37c-1.17,0.81-2.18,0.71-3.3-0.05c0.62-0.25,1.18-0.64,1.73-0.64    C73.69,20.68,74.19,21.1,74.76,21.37z M72.07,20.32c-1.03,0.79-1.47,0.79-2.7-0.03C70.31,19.71,71.2,19.78,72.07,20.32z     M69.32,19.52c-0.58,0.47-0.91,0.46-1.57-0.12C68.33,19.44,68.81,19.48,69.32,19.52z M67.53,21.14c-0.31-0.46-0.62-0.93-1-1.49    C67.77,19.85,67.71,20.47,67.53,21.14z M81.55,18.09c0.9,0.08,1.42,0.28,1.47,1c0.05,0.84,0.2,1.67,0.32,2.61    C82.01,20.73,81.74,19.47,81.55,18.09z M83.82,19.06c0.43,0.09,0.78,0.17,1.12,0.24c-0.08,0.03-0.16,0.05-0.24,0.08    c0.17,1.07,0.34,2.14,0.53,3.34C83.76,21.73,84.01,20.4,83.82,19.06z M88.02,23.17c-0.12-0.87-0.2-1.66-0.37-2.44    c-0.04-0.18-0.43-0.31-0.66-0.46c-0.06,0.19-0.2,0.39-0.17,0.57c0.12,0.71,0.29,1.41,0.44,2.11c-0.64,0.06-1.3-0.42-1.42-1.13    c-0.07-0.4-0.03-0.82-0.1-1.22c-0.06-0.36-0.21-0.71-0.37-1.25c1.28,0.56,2.43,1.07,3.57,1.59c0.1,0.05,0.2,0.16,0.21,0.25    c0.1,0.61,0.18,1.21,0.28,1.9C89.09,23.1,88.61,23.13,88.02,23.17z M90.03,21.46c1.06,0.24,0.57,1,0.97,1.45    C90.18,22.86,90.02,22.62,90.03,21.46z M93.21,22.05c-0.08,0.04-0.16,0.09-0.24,0.13c-0.58-0.29-1.15-0.59-1.78-0.9    c0.32-0.19,0.56-0.34,0.94-0.56C92.51,21.19,92.86,21.62,93.21,22.05z M91.3,20.13c-1.04,0.71-1.12,0.72-2.39,0.06    c0.62-0.22,1.16-0.41,1.71-0.61C90.85,19.76,91.05,19.93,91.3,20.13z M89.7,19.1c-0.04,0.4-1.51,0.7-2.08,0.5    c-0.35-0.12-0.68-0.27-1.3-0.51c0.99-0.37,1.76-0.65,2.73-1.01C89.28,18.41,89.73,18.76,89.7,19.1z M88.3,17.62    c-1.03,0.47-1.84,0.97-2.75,1.21c-0.43,0.11-1.05-0.28-1.58-0.44c-0.02-0.08-0.03-0.16-0.05-0.24c0.83-0.43,1.66-0.87,2.62-1.37    C87.01,17.01,87.59,17.29,88.3,17.62z M85.22,16.7c-0.91,0.85-2.25,1.22-3.09,0.84C82.91,16.63,84.46,16.22,85.22,16.7z     M82.12,16.43c-0.56,0.24-0.93,1.14-2.02,0.54C80.87,16.77,81.5,16.6,82.12,16.43z M89.41,15.14c-0.47-0.23-0.78-0.42-1.12-0.54    c-0.76-0.27-1.46-0.58-1.88-1.22c0.91-0.33,1.66-0.48,2.38,0.24c0.45,0.45,1.13,0.74,1.78,1.15    C90.02,14.94,89.61,15.07,89.41,15.14z M91.11,14.4c-0.64-0.33-1.25-0.72-1.84-1.11c-0.13-0.09-0.18-0.26-0.34-0.52    c0.29-0.05,0.55-0.16,0.68-0.1c0.72,0.33,1.42,0.68,2.09,1.08c0.14,0.08,0.08,0.38,0.11,0.57C91.58,14.36,91.26,14.48,91.11,14.4z     M92.77,13.79C92.09,13.4,91.4,13,90.72,12.6c-0.09-0.05-0.17-0.12-0.33-0.22c0.39-0.19,0.63-0.31,0.82-0.4    c0.55,0.27,1.04,0.55,1.57,0.76C93.59,13.07,93.61,13.3,92.77,13.79z M94.66,11.18c0.56-0.16,1.04-0.29,1.64-0.46    C95.45,11.91,95.36,11.94,94.66,11.18z M95.01,9.5c0.5,0.04,0.96,0.07,1.43,0.11c0.04,0.07,0.07,0.13,0.11,0.2    c-0.63,0.25-1.26,0.51-1.89,0.76c-0.04-0.04-0.08-0.08-0.12-0.12c0.17-0.24,0.35-0.47,0.51-0.71C95.08,9.69,95.03,9.61,95.01,9.5z     M94.23,9.53c-0.55,0.48-0.36,1.39-1.6,1.42C92.75,9.95,93.37,9.37,94.23,9.53z M95.17,12.08c-0.42,0.37-0.65,0.57-0.95,0.83    c-0.64-0.36-1.21-0.68-1.82-1.03C93.48,11.19,94.08,12.12,95.17,12.08z M91.42,9.5c0.22-0.02,0.57-0.04,0.93-0.07    c-0.74,2.01-0.74,2.01-2.19,2.18c0.24-0.43,0.42-0.75,0.61-1.07C90.97,10.21,91.17,9.9,91.42,9.5z M90.47,9.74    c-0.42,0.71-0.75,1.46-1.3,2.09c-0.26,0.3-0.94,0.37-1.53,0.58C87.99,10.89,89.1,9.41,90.47,9.74z M87.3,10.64    c-0.18,0.67-0.34,1.27-0.53,1.97c-0.05,0.01-0.32,0.05-0.58,0.09C85.98,11.92,86.4,11.12,87.3,10.64z M85.13,11.87    c0.15,1.09,0.15,1.09-1.36,1.32C84.29,12.68,84.68,12.31,85.13,11.87z M86.3,14.16c0.43,0.41,1.1,0.65,1.66,0.97    c-0.03,0.06-0.06,0.13-0.09,0.19c-1.38-0.44-3-0.43-4.25-1.5C84.73,13.61,85.56,13.45,86.3,14.16z M82.34,10.75    c0.29-0.32,0.55-0.62,0.82-0.92c0.35,0.03,0.69,0.05,1.02,0.08C83.89,10.79,83.49,10.98,82.34,10.75z M83.73,9.4    c-0.05,0.02-0.31-0.14-0.3-0.18c0.06-0.19,0.13-0.46,0.29-0.52c0.45-0.16,0.96-0.23,1.54-0.35C85.17,9.39,84.25,9.15,83.73,9.4z     M85.49,7.75c-0.4,0.03-0.8,0.06-1.2,0.09c-0.05-0.07-0.1-0.15-0.15-0.22c0.33-0.17,0.65-0.39,1.01-0.48    c0.12-0.03,0.36,0.28,0.55,0.43C85.63,7.63,85.56,7.69,85.49,7.75z M85.84,6.53c-0.41-0.03-0.76-0.06-1.11-0.09    c-0.06-0.06-0.12-0.12-0.18-0.18c0.28-0.23,0.57-0.66,0.83-0.66C86.02,5.62,86.03,6.05,85.84,6.53z M85.59,4.09    c0.09,0.2,0.28,0.4,0.25,0.59c-0.02,0.14-0.32,0.26-0.49,0.39c-0.1-0.07-0.2-0.14-0.3-0.21C85.23,4.61,85.41,4.35,85.59,4.09z     M85.01,2.49c-0.24,0.64-0.48,1.28-0.75,1.99C83.72,3.32,83.72,3.32,85.01,2.49z M83,3.77c1.05,1.11,1.34,2.17,0.45,3.48    c-0.37-0.91-0.75-1.7-0.97-2.52C82.41,4.48,82.79,4.13,83,3.77z M81.66,5.27c0.09,0.01,0.17,0.03,0.26,0.04    c0.46,0.83,1,1.63,1.32,2.5c0.11,0.29-0.33,0.72-0.59,1.22C82.1,8,81.56,7.14,81.2,6.24C81.1,5.99,81.49,5.6,81.66,5.27z     M80.72,7.07c1.23,1.01,1.61,2.53,0.81,3.25C80.34,9.31,80.02,8.04,80.72,7.07z M79.78,9.04c1.16,1.06,1.42,1.9,0.68,2.36    C79.78,10.68,79.44,9.95,79.78,9.04z M70.4,14.91c0.25-0.96,0.64-1.17,1.58-0.87C71.45,14.33,71.02,14.57,70.4,14.91z     M71.49,13.28c0.32-1.07,0.48-1.14,1.89-0.88C73.21,13.18,72.91,13.32,71.49,13.28z M72.29,11.74c0.49-0.91,1.08-1.16,2.36-1.04    C74.41,11.76,74.36,11.78,72.29,11.74z M73.33,10.27c0.49-0.89,0.78-0.98,2.01-0.75C75.27,9.81,75.27,9.81,73.33,10.27z     M74.23,8.88c0.34-0.78,0.63-0.91,1.54-0.68C75.63,8.79,75.63,8.79,74.23,8.88z M76.39,5.52c-0.01,0.36-0.02,0.72-0.04,1.13    c-0.36-0.12-0.56-0.18-0.84-0.27c0.24-0.3,0.48-0.59,0.71-0.88C76.28,5.5,76.33,5.51,76.39,5.52z M75.63,4.9    c-0.4,0.61-0.79,1.22-1.2,1.84C73.79,5.73,73.82,5.68,75.63,4.9z M73.26,6.13c0.75,0.98,0.77,1.59,0.03,2.33    c-0.19-0.7-0.38-1.31-0.5-1.92C72.77,6.44,73.07,6.29,73.26,6.13z M71.88,6.99c1.2,1.69,1.3,2.94-0.09,3.39    c-0.26-0.88-0.51-1.74-0.79-2.68C71.24,7.51,71.56,7.25,71.88,6.99z M69.82,9.37c0.15-0.31,0.38-0.6,0.7-0.9    c0.23,1.2,1.57,2.24,0.55,3.64c-0.47-0.74-0.93-1.42-1.32-2.12C69.66,9.81,69.73,9.55,69.82,9.37z M69.2,10.42    c0.59,0.42,1.03,0.84,0.92,1.39c-0.1,0.52,0.04,0.83,0.77,0.96c-0.28,0.28-0.48,0.48-0.68,0.69    C69.22,12.61,68.79,11.69,69.2,10.42z M55.31,16.09c-0.19-0.58-0.33-1.04-0.47-1.49c0.07-0.03,0.14-0.05,0.21-0.08    C55.17,14.98,56.16,15.25,55.31,16.09z M56.33,16.33c0.42-0.67,0.99-0.87,2.18-0.67C57.82,15.87,57.13,16.08,56.33,16.33z     M59.76,13.8c-0.42-0.05-0.91,0.21-1.45,0.36c0.45-1.37,1.68-1.42,3.09-1.48C60.9,13.19,60.91,13.93,59.76,13.8z M61.71,11.87    c-0.69,0.2-1.41,0.33-2.12,0.49c0.23-0.71,1.17-1.14,2.51-1.03C61.93,11.57,61.87,11.83,61.71,11.87z M60.64,10.75    c0.28-0.44,0.28-0.44,1.82-0.88C62.65,10.72,62.24,10.92,60.64,10.75z M62.87,8.68C62.77,8.84,62.64,9,62.46,9.11    c-0.28,0.18-0.61,0.33-1.03,0.56c0.17-0.38,0.21-0.65,0.39-0.83c0.17-0.17,0.47-0.28,0.74-0.37C62.63,8.45,62.89,8.66,62.87,8.68z     M62.47,5.02c0.05,0.03,0.11,0.07,0.16,0.1c-0.13,0.32-0.26,0.65-0.46,1.14c-0.21-0.32-0.51-0.57-0.44-0.69    C61.87,5.35,62.22,5.2,62.47,5.02z M61.09,6.04c0.4,0.59,1.09,1.15,0.18,1.92C60.35,6.69,60.32,6.34,61.09,6.04z M59.75,6.67    c0.29,0.58,0.49,1.18,0.87,1.69c0.47,0.65,0.13,1.08-0.46,1.63c-0.29-0.52-0.53-0.95-0.75-1.38c-0.22-0.43-0.4-0.88-0.67-1.47    C58.95,7.03,59.24,6.9,59.75,6.67z M58.06,7.54c0.47,0.86,0.85,1.64,1.32,2.37c0.34,0.53,0.43,0.98-0.38,1.51    c-0.65-1.02-1.27-2-1.96-3.09C57.25,8.17,57.58,7.92,58.06,7.54z M56.55,8.93c0.69,0.99,1.4,1.92,1.97,2.91    c0.14,0.24-0.17,0.66-0.32,1.14C56.26,11.26,55.68,9.84,56.55,8.93z M55.49,10.58c0.72,0.98,1.4,1.84,1.98,2.74    c0.12,0.19-0.14,0.53-0.25,0.86C55.86,13.37,54.96,11.55,55.49,10.58z M54.58,12.67c0.11-0.05,0.22-0.1,0.32-0.14    c0.52,0.75,1.04,1.5,1.55,2.25c-0.12,0.06-0.25,0.11-0.37,0.17C55.59,14.18,55.08,13.42,54.58,12.67z M39.59,26.04    c-0.89-0.8-0.71-2.52,0.09-3.55c0.4,0.26,0.78,0.52,1.26,0.84C39.41,23.98,40.04,25.15,39.59,26.04z M44.58,30.96    c-0.63-0.12-0.94-0.41-0.74-1.07c0.18-0.59,0.19-1.21,0.21-1.82c0-0.17-0.24-0.35-0.37-0.52c-0.12,0.15-0.32,0.3-0.36,0.46    c-0.13,0.65-0.21,1.3-0.31,1.95c-0.08,0.03-0.16,0.06-0.24,0.09c-0.56-0.56-1.11-1.12-1.68-1.68c-0.88-0.87-1-1.85-0.55-2.92    c0.12-0.29,0.03-0.64,0.16-0.92c0.24-0.49,0.6-0.51,0.97-0.1c0.46,0.51,0.72,0.94,0.23,1.66c-0.5,0.74-0.67,1.66-0.18,2.48    c0.11,0.01,0.22,0.03,0.33,0.04c0.22-0.79,0.44-1.58,0.66-2.36c0.11-0.02,0.22-0.03,0.32-0.05c0.86,1.08,1.71,2.15,2.38,3    C45.08,29.92,44.84,30.43,44.58,30.96z M46.01,32.01c-0.54-0.18-0.54-0.18-0.29-1.61c0.42,0.27,0.72,0.47,0.94,0.6    C46.4,31.39,46.2,31.7,46.01,32.01z M47.06,31.72c0.33,0.48,0.6,0.86,0.87,1.25C46.89,32.65,46.88,32.64,47.06,31.72z     M47.26,30.03c-0.62-0.01-0.93-0.29-1.34-1.23C46.91,28.63,47.03,28.75,47.26,30.03z M46.75,27.88c-1.02,0.43-1.52,0.25-1.89-0.73    C45.54,27.39,46.39,27.18,46.75,27.88z M45.94,26.39c-0.18,0.09-0.39,0.28-0.55,0.26c-0.49-0.05-0.97-0.19-1.46-0.29    c0.02-0.08,0.04-0.16,0.06-0.24c0.49-0.04,0.98-0.11,1.47-0.1C45.62,26.03,45.78,26.26,45.94,26.39z M45.1,25.27    c-1.91,0.14-2.33,0.33-2.55-0.94C44.59,24.22,44.91,24.34,45.1,25.27z M44.03,23.55c-1.26,0.41-2.28,0.14-2.69-0.77    c0.74,0.06,1.38,0.11,2.21,0.17C43.62,23.04,43.82,23.29,44.03,23.55z M42.94,22.38c-1.19-0.21-2.41,0.16-2.89-0.93    C40.81,21.22,42.15,21.6,42.94,22.38z M40.52,20.66c-1.07,0.38-1.47-0.07-1.69-0.75C39.37,20.15,39.91,20.39,40.52,20.66z     M38.66,20.98c0.7,0.58,0.3,1.03-0.22,1.48C38.51,22,38.58,21.53,38.66,20.98z M44.32,14.35c0.45-1.01,1.78-1.73,3.18-1.75    C47.31,14.17,45.66,14.02,44.32,14.35z M45.3,12.37c0.33-1.55,1.97-0.95,2.89-1.38C47.73,12.09,46.4,11.93,45.3,12.37z     M45.97,10.68c0.06-0.99,1.47-2.04,2.69-2.01C48.91,10.07,48.3,10.53,45.97,10.68z M48.88,1.54c0.27,0.5,0.67,1.02-0.5,1.38    C48.58,2.37,48.73,1.95,48.88,1.54z M48.65,3.68c0.07-0.07,0.4,0.04,0.61,0.06c-0.08,0.14-0.12,0.33-0.25,0.42    c-0.3,0.23-0.65,0.41-0.97,0.61c-0.08-0.02-0.15-0.04-0.23-0.06C48.08,4.37,48.33,4,48.65,3.68z M49.06,4.98    c0.39,0.9,0,1.27-1.63,1.6C47.3,5.58,48.42,5.45,49.06,4.98z M48.91,6.98c0.15,0.91,0.11,0.91-0.95,1.08    c-0.44,0.07-0.84,0.31-1.39,0.52C46.97,7.53,47.66,6.98,48.91,6.98z M46.33,3.36c0.64,0.47,0.8,1.02,0.52,1.95    C45.75,4.34,45.63,3.85,46.33,3.36z M44.91,4.26c0.19,0.12,0.43,0.21,0.54,0.36c0.32,0.44,0.62,0.9,0.87,1.38    c0.14,0.26,0.16,0.56,0.24,0.85c-0.09,0.02-0.17,0.03-0.26,0.05c-0.53-0.65-1.09-1.28-1.56-1.95C44.64,4.78,44.85,4.49,44.91,4.26    z M44.07,5.14c0.46,0.58,0.93,1.15,1.38,1.72c0.07,0.09,0.07,0.23,0.16,0.3c0.7,0.54,0.5,1.07-0.07,1.64    c-0.86-0.63-1.59-1.26-1.95-2.23C43.37,5.95,43.2,5.58,44.07,5.14z M42.68,6.71c0.81,0.97,1.46,1.76,2.12,2.54    c0.61,0.73,0.62,0.73,0.12,1.4c-0.86-1.01-1.69-1.94-2.43-2.91C42.34,7.55,42.58,7.18,42.68,6.71z M42.03,8.51    c0.97,0.92,1.88,1.67,2.6,2.53c0.22,0.26-0.08,0.81-0.17,1.43c-0.99-0.98-1.88-1.76-2.58-2.63C41.66,9.57,41.95,9.04,42.03,8.51z     M41.76,10.74c0.98,0.92,2,1.63,2.25,2.88C42.01,13.11,41.68,12.68,41.76,10.74z M42.11,13.67c1.38,0.38,1.54,0.72,0.74,1.65    C42.58,14.71,42.36,14.23,42.11,13.67z M60.51,25.97c-1.63,0.78-2.1,0.74-3.17-0.22C59.28,24.92,60.07,25.04,60.51,25.97z     M59.05,24.59c-0.81,0.2-1.6,0.39-2.5,0.61c-0.37-0.19-0.84-0.44-1.34-0.71C56.87,23.64,58.43,23.4,59.05,24.59z M57.36,23.11    c-0.73,0.26-1.38,0.49-2.03,0.72c-0.69,0.24-1.25,0.03-2.18-0.91c1.11-0.22,2.13-0.42,3.16-0.62    C56.67,22.57,57.02,22.84,57.36,23.11z M55.28,21.84c-0.77,0.22-1.56,0.53-2.4,0.64c-0.43,0.06-0.92-0.26-1.53-0.44    C53.09,21.07,54.19,21.06,55.28,21.84z M52.25,20.77c-0.89,0.66-1.69,0.6-2.5-0.29C50.69,20.59,51.44,20.67,52.25,20.77z     M49.76,23.13c-0.33-0.71-0.66-1.42-0.99-2.13c1.4,0.36,0.85,1.35,1.22,2.06C49.92,23.08,49.84,23.1,49.76,23.13z M51.63,23.58    c-0.19,0.4-0.13,0.88-0.15,1.32c-0.01,0.21,0.07,0.41,0.11,0.62c-0.34-0.4-0.99-0.62-0.57-1.33c0.28-0.47-0.12-1.19-0.23-1.89    C51.68,22.58,51.94,22.91,51.63,23.58z M53.58,27.28c-0.68-0.17-0.89-0.29-1.06-1.08c-0.18-0.86-0.55-1.75,0.11-2.68    c0.5,0.27,0.99,0.54,1.43,0.78C52.76,25.26,53.98,26.34,53.58,27.28z M55.55,28.41c-1.15-0.19-0.96-0.95-1.13-1.49    c-0.14-0.45-0.16-0.93-0.12-1.4c0.02-0.2,0.32-0.4,0.5-0.59c0.16,0.17,0.42,0.32,0.46,0.51c0.15,0.7,0.24,1.42,0.33,2.13    C55.62,27.83,55.57,28.1,55.55,28.41z M57.49,28.9c-1.19,0.15-1.06,0-1.17-1.08c-0.07-0.68-0.04-1.37-0.05-2.12    c0.52,0.36,1.04,0.72,1.63,1.12C56.95,27.48,57.53,28.21,57.49,28.9z M59.19,29.24c-0.42-0.13-0.95-0.24-0.94-0.3    c0.09-0.5-0.41-1.06,0.29-1.55c0.4,0.31,1.19,0.41,0.54,1.08C58.97,28.58,59.12,28.85,59.19,29.24z M59.16,27.12    c1.62-0.74,2.05-0.68,2.81,0.38C61.12,28.18,60.74,28.14,59.16,27.12z M61.35,29.29c-0.41-0.03-0.81-0.06-1.26-0.1    c-0.02-0.24-0.05-0.49-0.09-0.94c0.55,0.36,0.97,0.64,1.4,0.92C61.38,29.21,61.36,29.25,61.35,29.29z M62.94,29.35    c-0.52-0.31-0.99-0.59-1.5-0.89C62.53,28.09,63.04,28.39,62.94,29.35z"></path>
        </g>
    </g>
</svg>